<svg width="24" height="36" viewBox="0 0 24 36" fill="none" xmlns="http://www.w3.org/2000/svg">
<rect width="22.4977" height="34.7615" fill="black" fill-opacity="0" transform="translate(0.728516 0.404785)"/>
<path fill-rule="evenodd" clip-rule="evenodd" d="M18.152 30.6977V11.9008H19.7703V4.01818H18.152V2.08446H14.2083V4.01818H10.462V0.404785H5.96997C5.00207 0.40925 4.07547 0.797471 3.39346 1.48427C2.71145 2.17108 2.32972 3.10037 2.33204 4.06828V12.873H4.95071V18.0041H3.3472C2.65054 18.0072 1.98357 18.2865 1.49263 18.7808C1.00169 19.2751 0.726891 19.944 0.728523 20.6406V33.7136H12.0651V20.6401C12.0667 19.9435 11.7919 19.2748 11.3011 18.7805C10.8103 18.2862 10.1435 18.0068 9.44688 18.0035H7.84286V12.873H10.462V11.9018H14.2083V35.1637H23.2262V30.6977H18.152ZM15.222 3.10474H17.1388V3.91902H15.222V3.10474ZM9.44586 19.0243C9.87282 19.0262 10.2816 19.1974 10.5825 19.5003C10.8834 19.8032 11.0519 20.2132 11.0509 20.6401V32.6933H1.74215V20.6401C1.7412 20.2132 1.90966 19.8032 2.21056 19.5003C2.51146 19.1974 2.92024 19.0262 3.3472 19.0243H9.44637H9.44586ZM6.82872 18.002H5.96434V12.873H6.82974V18.0041L6.82872 18.002ZM4.95071 11.8548H3.34516V4.06725C3.34352 3.36905 3.6189 2.69871 4.11088 2.20328C4.60286 1.70785 5.27126 1.4278 5.96946 1.42455H9.44842V11.8548H4.9502H4.95071ZM10.462 10.8836V5.03846H18.7567V10.88H10.462V10.8836ZM22.2152 34.144H15.222V11.9008H17.1388V31.7185H22.2157V34.1445L22.2152 34.144ZM4.76976 7.44909C4.63499 7.45031 4.50615 7.5047 4.41129 7.60043C4.31642 7.69616 4.2632 7.82548 4.2632 7.96026V11.0058C4.2632 11.1402 4.3166 11.2691 4.41164 11.3641C4.50669 11.4592 4.6356 11.5126 4.77002 11.5126C4.90443 11.5126 5.03334 11.4592 5.12839 11.3641C5.22344 11.2691 5.27683 11.1402 5.27683 11.0058V7.95923C5.27657 7.82455 5.22316 7.69541 5.12821 7.59989C5.03326 7.50436 4.90444 7.45017 4.76976 7.44909ZM6.39679 7.44909C6.26202 7.45031 6.13318 7.5047 6.03831 7.60043C5.94344 7.69616 5.89022 7.82548 5.89023 7.96026V11.0058C5.89023 11.1402 5.94362 11.2691 6.03867 11.3641C6.13372 11.4592 6.26263 11.5126 6.39704 11.5126C6.53146 11.5126 6.66037 11.4592 6.75541 11.3641C6.85046 11.2691 6.90386 11.1402 6.90386 11.0058V7.95923C6.90359 7.82455 6.85018 7.69541 6.75523 7.59989C6.66028 7.50436 6.53147 7.45017 6.39679 7.44909ZM8.02381 7.44909C7.95696 7.4493 7.8908 7.46269 7.82913 7.4885C7.76746 7.51432 7.7115 7.55205 7.66444 7.59954C7.61738 7.64702 7.58015 7.70333 7.5549 7.76523C7.52964 7.82713 7.51685 7.8934 7.51725 7.96026V11.0058C7.51725 11.1402 7.57065 11.2691 7.66569 11.3641C7.76074 11.4592 7.88965 11.5126 8.02407 11.5126C8.15848 11.5126 8.2874 11.4592 8.38244 11.3641C8.47749 11.2691 8.53088 11.1402 8.53088 11.0058V7.95923C8.53062 7.82455 8.47721 7.69541 8.38226 7.59989C8.28731 7.50436 8.15849 7.45017 8.02381 7.44909ZM2.18482 34.144H1.2494C1.11383 34.144 0.983812 34.1978 0.887951 34.2937C0.792089 34.3895 0.738235 34.5196 0.738235 34.6551C0.738235 34.7907 0.792089 34.9207 0.887951 35.0166C0.983812 35.1124 1.11383 35.1663 1.2494 35.1663H2.18482C2.32039 35.1663 2.4504 35.1124 2.54627 35.0166C2.64213 34.9207 2.69598 34.7907 2.69598 34.6551C2.69598 34.5196 2.64213 34.3895 2.54627 34.2937C2.4504 34.1978 2.32039 34.144 2.18482 34.144ZM4.52901 34.144H3.59358C3.45801 34.144 3.328 34.1978 3.23213 34.2937C3.13627 34.3895 3.08242 34.5196 3.08242 34.6551C3.08242 34.7907 3.13627 34.9207 3.23213 35.0166C3.328 35.1124 3.45801 35.1663 3.59358 35.1663H4.52901C4.66457 35.1664 4.79462 35.1126 4.89052 35.0168C4.98643 34.9209 5.04035 34.791 5.04042 34.6554C5.04049 34.5198 4.9867 34.3898 4.89089 34.2939C4.79507 34.198 4.66508 34.144 4.52952 34.144H4.52901ZM6.8737 34.144H5.93879C5.80322 34.144 5.6732 34.1978 5.57734 34.2937C5.48148 34.3895 5.42763 34.5196 5.42763 34.6551C5.42763 34.7907 5.48148 34.9207 5.57734 35.0166C5.6732 35.1124 5.80322 35.1663 5.93879 35.1663H6.87421C7.00978 35.1663 7.13979 35.1124 7.23566 35.0166C7.33152 34.9207 7.38537 34.7907 7.38537 34.6551C7.38537 34.5196 7.33152 34.3895 7.23566 34.2937C7.13979 34.1978 7.00978 34.144 6.87421 34.144H6.8737ZM9.2184 34.144H8.28297C8.1474 34.144 8.01739 34.1978 7.92153 34.2937C7.82566 34.3895 7.77181 34.5196 7.77181 34.6551C7.77181 34.7907 7.82566 34.9207 7.92153 35.0166C8.01739 35.1124 8.1474 35.1663 8.28297 35.1663H9.22044C9.35601 35.1663 9.48602 35.1124 9.58188 35.0166C9.67775 34.9207 9.7316 34.7907 9.7316 34.6551C9.7316 34.5196 9.67775 34.3895 9.58188 34.2937C9.48602 34.1978 9.35601 34.144 9.22044 34.144H9.2184ZM11.5631 34.144H10.6277C10.4921 34.144 10.3621 34.1978 10.2662 34.2937C10.1704 34.3895 10.1165 34.5196 10.1165 34.6551C10.1165 34.7907 10.1704 34.9207 10.2662 35.0166C10.3621 35.1124 10.4921 35.1663 10.6277 35.1663H11.5631C11.6302 35.1663 11.6967 35.1531 11.7587 35.1275C11.8208 35.1018 11.8771 35.0642 11.9246 35.0168C11.9721 34.9693 12.0098 34.913 12.0355 34.851C12.0612 34.789 12.0745 34.7225 12.0745 34.6554C12.0745 34.5883 12.0614 34.5218 12.0357 34.4598C12.01 34.3977 11.9724 34.3414 11.925 34.2939C11.8775 34.2464 11.8212 34.2087 11.7592 34.183C11.6972 34.1573 11.6307 34.144 11.5636 34.144H11.5631Z" fill="#EA3A40"/>
</svg>
