<svg width="48" height="37" viewBox="0 0 48 37" fill="none" xmlns="http://www.w3.org/2000/svg">
<rect width="46.8808" height="35.8797" fill="black" fill-opacity="0" transform="translate(0.224609 0.259766)"/>
<path fill-rule="evenodd" clip-rule="evenodd" d="M44.1034 11.4958H29.1002C29.0095 11.2364 28.9175 10.9868 28.8378 10.7706C29.0269 10.7321 29.2031 10.6458 29.3494 10.5199C29.4958 10.394 29.6074 10.2327 29.6738 10.0515C29.7413 9.87031 29.7585 9.67427 29.7237 9.48411C29.6888 9.29395 29.6032 9.11675 29.4759 8.97126C29.102 8.52309 28.182 7.43251 27.4902 6.73347C27.6535 6.62231 27.7844 6.46987 27.8697 6.29167C27.9549 6.11346 27.9914 5.91586 27.9754 5.71897C27.9594 5.52209 27.8916 5.33294 27.7788 5.1708C27.666 5.00865 27.5122 4.87929 27.3331 4.79589L24.7196 3.55796C24.8399 3.39521 24.9128 3.20234 24.9303 3.00072C24.9477 2.79909 24.9089 2.59658 24.8183 2.41562C24.7329 2.23065 24.5971 2.07345 24.4265 1.962C24.256 1.85055 24.0575 1.78935 23.8538 1.78539L20.9382 1.64473C20.9933 1.44363 20.9881 1.23077 20.9231 1.03264C20.8581 0.834508 20.7364 0.659852 20.5729 0.530403C20.4177 0.404157 20.2335 0.318473 20.037 0.281059C19.8405 0.243644 19.6377 0.255673 19.447 0.316064L16.677 1.30678L16.6569 1.22944C16.6174 1.03037 16.5251 0.845556 16.3898 0.694301C16.2544 0.543047 16.081 0.430895 15.8875 0.369556C15.694 0.308216 15.4876 0.299937 15.2899 0.345581C15.0921 0.391226 14.9102 0.489122 14.7632 0.629049L12.7166 2.60195C12.6127 2.4374 12.4676 2.30274 12.2959 2.21124C12.1241 2.11974 11.9314 2.07455 11.7369 2.08011C11.5264 2.08472 11.3214 2.14761 11.1446 2.26177C10.9677 2.37594 10.826 2.5369 10.7352 2.72678L9.43027 5.50894L9.166 5.39933C8.98976 5.32636 8.79745 5.30095 8.6083 5.32564C8.41916 5.35032 8.23982 5.42424 8.08821 5.53999C7.94033 5.64449 7.81988 5.78316 7.73708 5.94419C7.65429 6.10523 7.6116 6.28387 7.61264 6.46494V9.34087H7.1255C6.95492 9.34281 6.78701 9.3835 6.63447 9.45988C6.48193 9.53625 6.34875 9.64631 6.245 9.78173C6.11543 9.91448 6.02745 10.0822 5.99186 10.2642C5.95627 10.4463 5.97463 10.6348 6.04467 10.8065C6.1287 11.0331 6.22735 11.2657 6.32234 11.4958H0.224609V34.6385C0.224609 35.0365 0.382749 35.4183 0.664239 35.6998C0.945729 35.9813 1.32751 36.1395 1.7256 36.1395C2.12368 36.1395 2.50547 35.9813 2.78696 35.6998C3.06845 35.4183 3.22659 35.0365 3.22659 34.6385V19.5817H44.1034V34.6385C44.1034 35.0365 44.2615 35.4183 44.543 35.6998C44.8245 35.9813 45.2063 36.1395 45.6044 36.1395C46.0025 36.1395 46.3843 35.9813 46.6658 35.6998C46.9472 35.4183 47.1054 35.0365 47.1054 34.6385V11.4958H44.1034ZM45.8815 12.7094V18.3675H45.3273V12.7094H45.8808H45.8815ZM7.2552 10.5551H7.72042C8.01554 10.556 8.29899 10.4399 8.50858 10.2321C8.71817 10.0244 8.83679 9.74194 8.8384 9.44682V6.57881L9.02412 6.65249C9.16024 6.71931 9.3091 6.75617 9.46068 6.76058C9.61225 6.76499 9.76301 6.73685 9.90279 6.67806C10.0373 6.62716 10.1602 6.54972 10.2642 6.45034C10.3682 6.35096 10.4511 6.23168 10.5081 6.09959L11.774 3.39355C11.8589 3.51826 11.9679 3.62477 12.0945 3.70685C12.2212 3.78893 12.3629 3.84492 12.5114 3.87155L12.6332 3.88373C12.7881 3.88971 12.9426 3.86449 13.0876 3.80957C13.2326 3.75465 13.3651 3.67116 13.4771 3.56404L15.4982 1.6155L15.5225 1.71293C15.5601 1.86494 15.629 2.00742 15.7249 2.13125C15.8207 2.25509 15.9413 2.35754 16.0791 2.43206C16.3328 2.55039 16.6191 2.57937 16.8914 2.51427L19.7064 1.51625C19.6799 1.67003 19.6844 1.82758 19.7199 1.97956C19.7554 2.13153 19.821 2.27485 19.9128 2.40101C20.0113 2.53418 20.1383 2.64368 20.2846 2.72153C20.4308 2.79937 20.5925 2.84361 20.758 2.851L23.5822 2.9874C23.4968 3.12185 23.4415 3.27314 23.42 3.43094C23.3985 3.58873 23.4113 3.74931 23.4575 3.9017C23.5038 4.0541 23.5824 4.19471 23.688 4.31393C23.7936 4.43315 23.9236 4.52818 24.0693 4.59251L26.6493 5.81644C26.4351 5.99896 26.2884 6.24814 26.2328 6.52401L26.2212 6.64214C26.2143 6.80201 26.2398 6.96163 26.2962 7.11139C26.3526 7.26114 26.4388 7.39793 26.5494 7.5135C27.145 8.10355 27.995 9.10096 28.4207 9.60514C28.2703 9.63846 28.1295 9.70541 28.0087 9.80096C27.888 9.89651 27.7904 10.0182 27.7234 10.1568C27.6401 10.3002 27.5912 10.4609 27.5806 10.6264C27.5701 10.7919 27.5981 10.9576 27.6626 11.1104C27.7082 11.2279 27.7569 11.3576 27.8069 11.4958H20.8372C20.6975 10.8202 20.3291 10.2134 19.7941 9.77767C19.2591 9.34199 18.5903 9.10409 17.9003 9.10409C17.2104 9.10409 16.5416 9.34199 16.0066 9.77767C15.4716 10.2134 15.1032 10.8202 14.9635 11.4958H7.6303C7.49918 11.1833 7.37415 10.8697 7.2552 10.5551ZM19.5633 11.4964H16.2356C16.3562 11.1514 16.5812 10.8525 16.8792 10.6409C17.1773 10.4294 17.5337 10.3157 17.8992 10.3156C18.2647 10.3156 18.6212 10.4291 18.9193 10.6405C19.2175 10.852 19.4425 11.1509 19.5633 11.4958V11.4964ZM1.44915 12.7094H2.00266V18.3675H1.44915V12.7094ZM2.00266 34.6385C1.99932 34.7096 1.9687 34.7768 1.91717 34.8259C1.86563 34.8751 1.79714 34.9025 1.7259 34.9025C1.65467 34.9025 1.58617 34.8751 1.53464 34.8259C1.4831 34.7768 1.45249 34.7096 1.44915 34.6385V19.5817H2.00266V34.6385ZM3.22659 18.3675V12.7094H44.1034V18.3675H3.22659ZM45.8815 34.6385C45.8781 34.7096 45.8475 34.7768 45.796 34.8259C45.7444 34.8751 45.6759 34.9025 45.6047 34.9025C45.5335 34.9025 45.465 34.8751 45.4134 34.8259C45.3619 34.7768 45.3313 34.7096 45.3279 34.6385V19.5817H45.8815V34.6385Z" fill="#EA3A40"/>
</svg>
