<svg width="67" height="37" viewBox="0 0 67 37" fill="none" xmlns="http://www.w3.org/2000/svg">
<rect width="65.9278" height="35.8796" fill="black" fill-opacity="0" transform="translate(0.830078 0.21875)"/>
<path fill-rule="evenodd" clip-rule="evenodd" d="M60.0908 20.6412H32.7104V8.97667H27.9899V2.01431C27.9899 1.77851 27.9434 1.54502 27.8532 1.32718C27.763 1.10933 27.6307 0.911389 27.464 0.744656C27.2973 0.577924 27.0993 0.445664 26.8815 0.355428C26.6636 0.265193 26.4301 0.21875 26.1943 0.21875C25.9585 0.21875 25.7251 0.265193 25.5072 0.355428C25.2894 0.445664 25.0914 0.577924 24.9247 0.744656C24.7579 0.911389 24.6257 1.10933 24.5355 1.32718C24.4452 1.54502 24.3988 1.77851 24.3988 2.01431V8.97667H9.73018V15.4377L1.23023 24.022L0.830078 24.9227V34.8107H9.73018V36.0984H32.7104V34.1731H60.0908C61.868 34.1469 63.5635 33.4226 64.811 32.1566C66.0586 30.8906 66.7579 29.1845 66.7579 27.4071C66.7579 25.6298 66.0586 23.9237 64.811 22.6577C63.5635 21.3917 61.868 20.6674 60.0908 20.6412ZM31.2446 34.6194H11.1952V33.331H2.29584V25.2393L2.45781 24.8728L11.1952 16.049V10.4542H25.8631V2.01504C25.8587 1.96912 25.864 1.92279 25.8786 1.87904C25.8932 1.83529 25.9168 1.79507 25.9479 1.76095C25.9789 1.72684 26.0167 1.69958 26.0589 1.68093C26.1011 1.66228 26.1467 1.65265 26.1929 1.65265C26.239 1.65265 26.2846 1.66228 26.3268 1.68093C26.369 1.69958 26.4068 1.72684 26.4379 1.76095C26.4689 1.79507 26.4925 1.83529 26.5071 1.87904C26.5217 1.92279 26.527 1.96912 26.5227 2.01504V10.4542H31.2446V34.6172V34.6194ZM60.0908 32.6941H32.7104V22.1209H60.0908C61.4821 22.1373 62.8109 22.7015 63.789 23.6911C64.767 24.6808 65.3155 26.0161 65.3155 27.4075C65.3155 28.7989 64.767 30.1343 63.789 31.1239C62.8109 32.1136 61.4821 32.6778 60.0908 32.6941ZM2.95543 32.6604H11.1952V16.9958L2.95543 25.3162V32.6604ZM4.42119 25.9275L9.73018 20.5679V31.1822H4.42119V25.9289V25.9275ZM13.2744 26.0132C13.1776 26.0132 13.0817 26.0324 12.9924 26.0696C12.903 26.1069 12.822 26.1614 12.7538 26.2302C12.6857 26.2989 12.6318 26.3805 12.5954 26.4702C12.5589 26.5599 12.5406 26.6559 12.5415 26.7527V32.1218C12.5415 32.3161 12.6187 32.5025 12.7562 32.64C12.8936 32.7774 13.08 32.8546 13.2744 32.8546C13.4688 32.8546 13.6552 32.7774 13.7926 32.64C13.9301 32.5025 14.0073 32.3161 14.0073 32.1218V26.7541C14.0081 26.6574 13.9898 26.5613 13.9534 26.4717C13.9169 26.382 13.8631 26.3004 13.795 26.2317C13.7268 26.1629 13.6457 26.1083 13.5564 26.0711C13.467 26.0338 13.3712 26.0147 13.2744 26.0147V26.0132ZM15.6262 26.0132C15.5294 26.0132 15.4336 26.0324 15.3442 26.0696C15.2549 26.1069 15.1738 26.1614 15.1056 26.2302C15.0375 26.2989 14.9836 26.3805 14.9472 26.4702C14.9108 26.5599 14.8924 26.6559 14.8933 26.7527V32.1218C14.8933 32.3161 14.9705 32.5025 15.108 32.64C15.2454 32.7774 15.4318 32.8546 15.6262 32.8546C15.8206 32.8546 16.007 32.7774 16.1444 32.64C16.2819 32.5025 16.3591 32.3161 16.3591 32.1218V26.7541C16.36 26.6574 16.3416 26.5613 16.3052 26.4717C16.2688 26.382 16.2149 26.3004 16.1468 26.2317C16.0786 26.1629 15.9975 26.1083 15.9082 26.0711C15.8188 26.0338 15.723 26.0147 15.6262 26.0147V26.0132ZM17.978 26.0132C17.8812 26.0132 17.7854 26.0324 17.696 26.0696C17.6067 26.1069 17.5256 26.1614 17.4574 26.2302C17.3893 26.2989 17.3355 26.3805 17.299 26.4702C17.2626 26.5599 17.2443 26.6559 17.2451 26.7527V32.1218C17.2451 32.3161 17.3223 32.5025 17.4598 32.64C17.5972 32.7774 17.7836 32.8546 17.978 32.8546C18.1724 32.8546 18.3588 32.7774 18.4962 32.64C18.6337 32.5025 18.7109 32.3161 18.7109 32.1218V26.7541C18.7118 26.6575 18.6935 26.5616 18.6571 26.472C18.6208 26.3824 18.5671 26.3009 18.4991 26.2322C18.4311 26.1634 18.3502 26.1088 18.261 26.0715C18.1718 26.0342 18.0762 26.0149 17.9795 26.0147L17.978 26.0132Z" fill="#EA3A40"/>
</svg>
