<svg width="31" height="37" viewBox="0 0 31 37" fill="none" xmlns="http://www.w3.org/2000/svg">
<rect width="30.4454" height="35.8798" fill="black" fill-opacity="0" transform="translate(0.3125 0.259766)"/>
<path fill-rule="evenodd" clip-rule="evenodd" d="M30.7565 23.8276C30.7565 21.5528 21.8779 21.2412 18.1897 21.2101V19.8488C21.8786 19.8184 30.7565 19.5062 30.7565 17.2313C30.7565 14.9565 21.8779 14.6443 18.1897 14.6138V0.259766H12.5768V12.2868C10.1577 12.4812 7.22659 12.723 0.918806 13.2573C0.752392 13.2748 0.598359 13.3533 0.486404 13.4777C0.374449 13.6021 0.3125 13.7635 0.3125 13.9308C0.3125 14.0981 0.374449 14.2596 0.486404 14.3839C0.598359 14.5083 0.752392 14.5868 0.918806 14.6043L3.63317 14.8359C8.00135 15.2084 10.1834 15.3947 12.5774 15.5856V18.8838C10.1583 19.0781 7.22727 19.3199 0.919483 19.8543C0.753069 19.8718 0.599037 19.9503 0.487082 20.0747C0.375127 20.199 0.313177 20.3604 0.313177 20.5278C0.313177 20.6951 0.375127 20.8565 0.487082 20.9809C0.599037 21.1052 0.753069 21.1838 0.919483 21.2013L3.72121 21.4404C8.04198 21.8088 10.2071 21.9937 12.5781 22.1853V25.4801C10.159 25.6744 7.22794 25.9162 0.920159 26.4512C0.753746 26.4688 0.599714 26.5473 0.487759 26.6716C0.375804 26.796 0.313854 26.9574 0.313854 27.1247C0.313854 27.2921 0.375804 27.4535 0.487759 27.5778C0.599714 27.7022 0.753746 27.7807 0.920159 27.7982L3.5133 28.0197C8.02573 28.4044 10.2044 28.5906 12.5788 28.7802V33.3767C12.5902 34.1133 12.8909 34.816 13.4159 35.3329C13.9409 35.8498 14.6482 36.1395 15.3849 36.1395C16.1217 36.1395 16.8289 35.8498 17.3539 35.3329C17.8789 34.816 18.1796 34.1133 18.1911 33.3767V32.9974C21.88 32.9669 30.7579 32.6554 30.7579 30.3799C30.7579 28.1044 21.8793 27.7928 18.1911 27.7624V26.4465C21.8779 26.416 30.7565 26.1045 30.7565 23.8276ZM18.1897 15.9669C24.0309 16.0157 28.0672 16.6828 29.1799 17.2327C28.0665 17.7826 24.0329 18.4517 18.1897 18.4984V15.9669ZM18.1897 22.5632C24.0315 22.6086 28.0672 23.279 29.1799 23.8276C28.0672 24.3775 24.0329 25.0466 18.1897 25.094V22.5632ZM12.5774 27.4224C11.4417 27.3316 10.3426 27.2409 8.99892 27.1278C10.4326 27.0093 11.5541 26.9178 12.5774 26.8359V27.4224ZM12.5774 20.8261C11.4349 20.7347 10.331 20.6439 9.00027 20.5322C10.4333 20.4137 11.5541 20.3222 12.5774 20.2403V20.8268V20.8261ZM12.5774 14.2291C11.4329 14.1377 10.3283 14.047 9.00027 13.9352C10.4333 13.8167 11.5541 13.7253 12.5774 13.6433V14.2298V14.2291ZM16.8224 33.3767C16.8224 33.7583 16.6707 34.1244 16.4009 34.3943C16.131 34.6642 15.7649 34.8158 15.3832 34.8158C15.0016 34.8158 14.6355 34.6642 14.3656 34.3943C14.0957 34.1244 13.9441 33.7583 13.9441 33.3767V26.7269L15.4415 26.6083L16.8122 26.4993L16.8224 33.3767ZM16.8224 25.1394L15.3324 25.2573L13.9441 25.367V20.1306L15.4713 20.01L16.8122 19.9037L16.8224 20.1665V25.1428V25.1394ZM16.8224 18.5431L15.3616 18.6589L13.9434 18.7714V13.5336L15.4408 13.4151L16.8115 13.3067L16.8217 13.9311V18.5452L16.8224 18.5431ZM16.8224 11.9468L15.3324 12.0647L13.9441 12.1744V1.61424H16.8224V11.9502V11.9468ZM29.1799 30.3826C28.0672 30.9325 24.0329 31.6016 18.1897 31.649V29.1168C24.0315 29.1656 28.0672 29.8327 29.1799 30.3826Z" fill="#EA3A40"/>
</svg>
