<svg width="35" height="39" viewBox="0 0 35 39" fill="none" xmlns="http://www.w3.org/2000/svg">
<rect width="34.4528" height="37.3728" fill="black" fill-opacity="0" transform="translate(0.105469 0.765625)"/>
<path fill-rule="evenodd" clip-rule="evenodd" d="M34.5582 23.6277H7.5889V18.8972H0.105469V38.1384H7.5889V33.4115H34.5582V23.6277ZM17.1123 24.8015H19.7782L18.414 32.2365H15.748L17.1123 24.8015ZM14.5555 32.2365H11.8895L13.252 24.8015H15.918L14.5555 32.2365ZM20.969 24.8015H23.6374L22.2719 32.2365H19.6077L20.969 24.8015ZM24.827 24.8015H27.4918L26.1305 32.2365H23.4622L24.827 24.8015ZM28.6849 24.8015H31.3503L29.9884 32.2365H27.3224L28.6849 24.8015ZM1.27815 20.0711H6.41739V22.4509H1.27815V20.0728V20.0711ZM6.41739 36.9628H1.27815V34.5847H6.41739V36.9646V36.9628ZM6.41739 33.4091H1.27815V23.6265H6.41739V33.4115V33.4091ZM7.5889 24.8015H12.0595L10.697 32.2365H7.5889V24.8015ZM33.3832 32.2365H31.1809L32.5434 24.8015H33.3832V32.2365ZM25.5143 20.0728L31.0852 10.4204L25.5143 0.765625H14.3727L8.80363 10.4204L14.3727 20.0728H25.5143ZM15.0525 1.94123H24.8369L29.7303 10.4204L24.8369 18.8996H15.0525L10.1568 10.4204L15.0525 1.94123ZM19.9435 15.9789C21.043 15.9794 22.1179 15.6538 23.0323 15.0433C23.9467 14.4328 24.6596 13.5648 25.0806 12.5492C25.5017 11.5335 25.6121 10.4158 25.3979 9.3374C25.1837 8.25899 24.6545 7.26834 23.8772 6.49072C23.0999 5.71311 22.1095 5.18348 21.0311 4.96881C19.9528 4.75414 18.8351 4.86409 17.8192 5.28473C16.8034 5.70538 15.9351 6.41783 15.3243 7.33198C14.7134 8.24613 14.3873 9.32091 14.3873 10.4204C14.3887 11.8938 14.9745 13.3065 16.0161 14.3485C17.0577 15.3906 18.4701 15.9769 19.9435 15.9789ZM19.9435 6.0351C20.8109 6.03464 21.659 6.29144 22.3805 6.77302C23.102 7.2546 23.6644 7.93933 23.9967 8.74059C24.3289 9.54186 24.4161 10.4237 24.2472 11.2745C24.0782 12.1253 23.6608 12.9069 23.0476 13.5204C22.4344 14.134 21.653 14.5519 20.8022 14.7212C19.9515 14.8906 19.0697 14.8039 18.2682 14.4721C17.4668 14.1402 16.7817 13.5782 16.2998 12.857C15.8178 12.1358 15.5606 11.2878 15.5606 10.4204C15.5616 9.25808 16.0237 8.14364 16.8454 7.32154C17.667 6.49944 18.7812 6.0368 19.9435 6.0351Z" fill="#EA3A40"/>
</svg>
