<svg width="38" height="37" viewBox="0 0 38 37" fill="none" xmlns="http://www.w3.org/2000/svg">
<rect width="36.3756" height="35.8797" fill="black" fill-opacity="0" transform="translate(0.850586 0.259766)"/>
<path fill-rule="evenodd" clip-rule="evenodd" d="M19.0348 4.49588C16.3267 4.53523 13.6906 5.37423 11.458 6.90742C9.2254 8.44061 7.49582 10.5996 6.48669 13.1129C5.47756 15.6263 5.2339 18.3818 5.78636 21.0333C6.33882 23.6847 7.66273 26.1136 9.59168 28.0148C11.5206 29.916 13.9685 31.2045 16.6277 31.7184C19.2869 32.2324 22.0386 31.9487 24.5371 30.9032C27.0355 29.8578 29.1691 28.097 30.6698 25.8424C32.1704 23.5878 32.9711 20.9398 32.9711 18.2315C32.9402 14.5633 31.4556 11.0571 28.843 8.48211C26.2304 5.9071 22.703 4.47353 19.0348 4.49588ZM19.0348 30.7762C16.5613 30.7403 14.1536 29.974 12.1144 28.5736C10.0752 27.1733 8.49548 25.2013 7.57379 22.9057C6.6521 20.6101 6.42959 18.0932 6.93423 15.6715C7.43887 13.2498 8.64813 11.0313 10.41 9.29489C12.1719 7.55848 14.4078 6.38164 16.8366 5.91231C19.2654 5.44299 21.7787 5.70212 24.0607 6.65713C26.3426 7.61215 28.2914 9.22042 29.6619 11.2798C31.0324 13.3392 31.7636 15.7577 31.7635 18.2315C31.7353 21.5818 30.3794 24.7842 27.9931 27.136C25.6069 29.4879 22.3852 30.7973 19.0348 30.7768V30.7762ZM19.0527 14.0033C18.2169 14.0155 17.4032 14.2745 16.7141 14.7477C16.025 15.221 15.4911 15.8874 15.1797 16.6631C14.8682 17.4389 14.793 18.2895 14.9635 19.1079C15.134 19.9262 15.5426 20.676 16.138 21.2628C16.7334 21.8496 17.4889 22.2474 18.3097 22.4061C19.1305 22.5647 19.9798 22.4772 20.751 22.1546C21.5222 21.8319 22.1808 21.2885 22.6441 20.5926C23.1073 19.8967 23.3545 19.0794 23.3546 18.2435C23.3449 17.1113 22.8867 16.0293 22.0804 15.2345C21.2741 14.4398 20.1855 13.9972 19.0533 14.0039L19.0527 14.0033ZM19.0527 21.2927C18.4515 21.284 17.8662 21.0977 17.3706 20.7573C16.8749 20.4169 16.4909 19.9376 16.2668 19.3796C16.0428 18.8216 15.9887 18.2098 16.1113 17.6211C16.2339 17.0325 16.5279 16.4932 16.9561 16.0711C17.3844 15.649 17.9278 15.3629 18.5182 15.2487C19.1086 15.1346 19.7195 15.1975 20.2742 15.4296C20.829 15.6617 21.3027 16.0526 21.6359 16.5531C21.9691 17.0537 22.1469 17.6415 22.147 18.2429C22.1403 19.0573 21.8109 19.8359 21.2309 20.4078C20.6509 20.9797 19.8678 21.2981 19.0533 21.2933L19.0527 21.2927ZM37.1387 20.3099C36.6312 18.9017 36.0353 17.5269 35.3546 16.1938L35.3408 16.1051L35.3312 16.0889L35.3737 16.0038C35.3956 15.9655 35.4281 15.9343 35.4672 15.9139L35.7441 15.8684C35.9919 15.8219 36.2226 15.7097 36.4121 15.5436C36.6017 15.3774 36.7431 15.1634 36.8217 14.9239C36.9068 14.6936 36.9239 14.4437 36.8707 14.2041C36.8176 13.9644 36.6965 13.7451 36.522 13.5724C35.653 12.5812 34.2854 11.0925 33.3019 10.1695C33.2786 10.1535 33.2602 10.1314 33.2485 10.1057C33.2369 10.0799 33.2326 10.0514 33.236 10.0233C33.2559 9.93199 33.3054 9.84981 33.3768 9.78959L33.4416 9.73445C33.6462 9.60239 33.8126 9.41913 33.9245 9.20285C34.0364 8.98657 34.0898 8.74479 34.0794 8.50151C34.0689 8.25823 33.9951 8.02191 33.8651 7.81599C33.7352 7.61007 33.5536 7.44171 33.3385 7.32762C31.9601 6.62163 30.2221 5.74904 29.0318 5.25341C29.006 5.24788 28.9827 5.23395 28.9655 5.21379C28.9484 5.19363 28.9384 5.16836 28.9372 5.14194C28.9231 5.07064 28.9337 4.9967 28.9671 4.93218L29.0456 4.79853C29.1925 4.5987 29.2815 4.36222 29.3026 4.1151C29.3238 3.86799 29.2763 3.61983 29.1655 3.39795C29.0656 3.17454 28.9059 2.98313 28.704 2.84488C28.502 2.70664 28.2658 2.62695 28.0214 2.61465C27.6702 2.59127 27.2765 2.56251 26.8647 2.53194C25.641 2.44205 24.2542 2.34016 23.2689 2.34016C23.201 2.32115 23.1391 2.28504 23.0891 2.23528C23.0669 2.17599 23.0611 2.11181 23.0723 2.0495L23.0843 1.92304C23.1418 1.68249 23.1293 1.4305 23.0482 1.19685C22.967 0.963196 22.8207 0.757667 22.6264 0.604561C22.4435 0.448235 22.2242 0.340315 21.9887 0.290685C21.7532 0.241055 21.5091 0.251302 21.2786 0.320488C19.8942 0.759183 17.992 1.38726 16.8017 1.88349C16.7418 1.90746 16.6873 1.90626 16.6939 1.91405L16.6423 1.87989C16.6237 1.87397 16.6069 1.86337 16.5936 1.84909C16.5803 1.83482 16.5708 1.81736 16.5662 1.79839L16.5578 1.609C16.519 1.35984 16.4138 1.12575 16.2531 0.931371C16.0925 0.736991 15.8824 0.589517 15.6451 0.504477C15.4145 0.420418 15.1657 0.399428 14.9243 0.443678C14.683 0.487928 14.4578 0.595811 14.272 0.756186C13.1675 1.7031 11.6579 3.01199 10.7283 3.88279C10.7011 3.91366 10.6658 3.93629 10.6264 3.94811C10.5452 3.93163 10.4702 3.89306 10.4095 3.83664L10.3753 3.77012C10.2488 3.55342 10.0634 3.3771 9.84057 3.26166C9.61777 3.14623 9.36677 3.09644 9.11678 3.11807C8.87524 3.13371 8.64125 3.20846 8.43538 3.33575C8.22951 3.46303 8.05807 3.63895 7.93613 3.84803C7.31944 5.02028 6.43786 6.83739 5.90327 8.03661C5.84198 8.15097 5.76865 8.25845 5.68453 8.35724C5.65931 8.34402 5.6361 8.32727 5.61561 8.30749L5.51612 8.2116C5.30947 8.04894 5.06119 7.94776 4.7997 7.91967C4.53821 7.89158 4.2741 7.93772 4.03762 8.05279C3.81272 8.14802 3.61902 8.30443 3.47855 8.50423C3.33807 8.70403 3.25645 8.93922 3.24294 9.18309C3.21777 9.53009 3.1902 9.91304 3.15784 10.3164C3.06614 11.5252 2.96246 12.8934 2.96246 13.8697C2.96336 13.9014 2.95632 13.9328 2.94197 13.961C2.92763 13.9893 2.90645 14.0135 2.88036 14.0315C2.81452 14.0642 2.73982 14.0745 2.6676 14.0609L2.53995 14.0495C2.29673 13.9917 2.04217 14.0033 1.80525 14.0831C1.56832 14.1629 1.35857 14.3076 1.19989 14.5008C1.04206 14.6789 0.932664 14.8946 0.882185 15.1271C0.831705 15.3597 0.841843 15.6013 0.911622 15.8288C1.34852 17.1677 1.98259 19.0861 2.45125 20.2871C2.47642 20.347 2.47582 20.3974 2.48301 20.392L2.39611 20.546C2.38205 20.5545 2.36665 20.5606 2.35056 20.564L2.21932 20.5724C1.96927 20.6085 1.73346 20.711 1.53638 20.869C1.3393 21.0271 1.18814 21.2351 1.09861 21.4713C1.01385 21.6962 0.991935 21.94 1.03523 22.1764C1.07852 22.4128 1.18537 22.6329 1.34432 22.8132C1.94363 23.5294 3.45689 25.3087 4.52666 26.3623C4.54807 26.3893 4.56378 26.4204 4.57284 26.4537C4.58191 26.487 4.58414 26.5217 4.5794 26.5559C4.56412 26.5988 4.54251 26.6392 4.51527 26.6757L4.49849 26.6841C4.2668 26.8009 4.07322 26.9814 3.94043 27.2043C3.80764 27.4272 3.74115 27.6833 3.74876 27.9427C3.75035 28.2022 3.82733 28.4558 3.97032 28.6724C4.11332 28.889 4.31618 29.0594 4.55423 29.1629L8.84349 31.1826C8.88769 31.2068 8.9214 31.2465 8.93818 31.294C8.94519 31.3278 8.94519 31.3627 8.93818 31.3965L8.86447 31.4325L8.78176 31.535C8.62329 31.7361 8.52367 31.9772 8.49397 32.2315C8.46426 32.4858 8.50563 32.7433 8.61348 32.9756C8.72133 33.2078 8.89144 33.4056 9.10491 33.5469C9.31839 33.6883 9.56687 33.7677 9.82276 33.7764L14.5663 34.0047C14.6142 34.0177 14.6564 34.0464 14.6862 34.0862C14.7151 34.1414 14.7268 34.2041 14.7197 34.266L14.6886 34.3577C14.6039 34.6106 14.5994 34.8835 14.6758 35.1391C14.7522 35.3946 14.9057 35.6203 15.1153 35.7853C15.382 36.0098 15.7183 36.135 16.067 36.1395C16.224 36.1385 16.3801 36.1157 16.5308 36.0717L20.9657 34.4937C21.0093 34.4865 21.0534 34.4827 21.0976 34.4824C21.1455 34.4824 21.1689 34.4907 21.1695 34.4872C21.201 34.5214 21.2244 34.5624 21.2378 34.607L21.3205 34.9253C21.3724 35.1714 21.4889 35.3992 21.6581 35.5854C21.8272 35.7716 22.0429 35.9093 22.2829 35.9845C22.5229 36.0597 22.7787 36.0696 23.0238 36.0132C23.2689 35.9568 23.4946 35.8361 23.6776 35.6636L27.0122 32.4687C27.033 32.4505 27.0573 32.4367 27.0835 32.4279C27.1097 32.4192 27.1374 32.4157 27.165 32.4177C27.2123 32.4339 27.2483 32.4531 27.2471 32.4513L27.3592 32.6251C27.4853 32.8455 27.6691 33.0272 27.8909 33.1508C28.1127 33.2744 28.364 33.335 28.6177 33.3263C28.8782 33.3201 29.1319 33.2421 29.3509 33.1009C29.5699 32.9598 29.7457 32.7609 29.8589 32.5262L31.9319 28.1225C31.9509 28.0832 31.9742 28.0462 32.0014 28.0122L32.0775 27.9787C32.0943 27.9745 32.1118 27.9738 32.1288 27.9768C32.1459 27.9798 32.1621 27.9864 32.1764 27.996L32.7422 28.2286C32.96 28.3199 33.1981 28.3522 33.4324 28.3223C33.6668 28.2923 33.889 28.201 34.0768 28.0578C34.2648 27.9291 34.4183 27.7562 34.5237 27.5543C34.6292 27.3524 34.6834 27.1277 34.6815 26.8999V22.2954C34.681 22.2716 34.6852 22.248 34.6941 22.2259C34.7029 22.2038 34.7161 22.1838 34.7329 22.167C34.7497 22.1502 34.7698 22.1369 34.7919 22.1281C34.8139 22.1193 34.8376 22.115 34.8613 22.1156H35.7861C36.0007 22.1116 36.2116 22.0589 36.4029 21.9614C36.5941 21.8639 36.7607 21.7242 36.89 21.5528C37.0505 21.3939 37.1598 21.1908 37.2042 20.9693C37.2485 20.7479 37.2257 20.5183 37.1387 20.3099ZM35.9179 20.8535C35.8857 20.8939 35.8395 20.9208 35.7885 20.929H34.8613C34.6799 20.9258 34.4997 20.9588 34.3312 21.026C34.1628 21.0933 34.0094 21.1935 33.88 21.3207C33.7507 21.4479 33.648 21.5996 33.578 21.767C33.5079 21.9343 33.472 22.114 33.4721 22.2954V26.8969C33.4732 26.9297 33.4668 26.9622 33.4535 26.9922C33.4402 27.0222 33.4204 27.0488 33.3954 27.0701L33.3181 27.13C33.2779 27.1369 33.2365 27.133 33.1983 27.1186L32.681 26.9077C32.5127 26.8254 32.3285 26.7805 32.1411 26.7761C31.9538 26.7718 31.7677 26.8081 31.5957 26.8825C31.4285 26.9451 31.2758 27.0412 31.1469 27.1648C31.0181 27.2885 30.9159 27.4371 30.8466 27.6017L28.7741 32.0054C28.7602 32.037 28.739 32.0648 28.7124 32.0868C28.6858 32.1088 28.6544 32.1242 28.6207 32.1319C28.5831 32.1383 28.5444 32.134 28.509 32.1196C28.4737 32.1052 28.443 32.0812 28.4206 32.0504L28.3073 31.8742C28.2021 31.7062 28.0628 31.5622 27.8983 31.4516C27.7338 31.341 27.5479 31.2663 27.3526 31.2323L27.2327 31.2203C27.0373 31.2118 26.8421 31.2425 26.6587 31.3105C26.4753 31.3785 26.3074 31.4826 26.1648 31.6165L22.8308 34.8114C22.8071 34.8295 22.7798 34.8423 22.7508 34.8489C22.7217 34.8555 22.6916 34.8558 22.6624 34.8497C22.6227 34.8383 22.5869 34.8162 22.5588 34.7859C22.5307 34.7556 22.5114 34.7182 22.503 34.6777L22.4107 34.314C22.3638 34.1266 22.2787 33.9509 22.1609 33.7979C22.043 33.6448 21.8948 33.5178 21.7257 33.4246C21.4008 33.2775 21.036 33.2433 20.6895 33.3275L16.1629 34.9408C16.1125 34.9561 16.059 34.9572 16.008 34.9441C15.9571 34.931 15.9107 34.9042 15.874 34.8665C15.8579 34.8515 15.8461 34.8325 15.8398 34.8115C15.8335 34.7904 15.8329 34.768 15.838 34.7467L15.904 34.5381C15.9449 34.3386 15.9441 34.1327 15.9015 33.9335C15.8589 33.7343 15.7754 33.5462 15.6564 33.3808C15.5334 33.2157 15.3751 33.0801 15.193 32.9838C15.011 32.8875 14.8098 32.8329 14.6041 32.8241L9.85992 32.5957C9.82375 32.595 9.78889 32.5821 9.76103 32.559C9.73316 32.5359 9.71394 32.5041 9.7065 32.4687C9.6889 32.4367 9.68317 32.3996 9.69032 32.3638L9.77542 32.2877C9.93094 32.1295 10.0444 31.935 10.1056 31.7218C10.1667 31.5085 10.1735 31.2834 10.1254 31.0669C10.0802 30.8536 9.98442 30.6543 9.84613 30.4858C9.70783 30.3172 9.53107 30.1844 9.33073 30.0984L5.08761 28.0985C5.05162 28.0923 5.01886 28.0739 4.99485 28.0464C4.97083 28.0189 4.95703 27.984 4.95577 27.9475C4.9539 27.9015 4.96209 27.8557 4.97974 27.8132L5.17631 27.6934C5.48417 27.4587 5.69698 27.1207 5.77562 26.7417L5.78761 26.6248C5.79907 26.4226 5.76875 26.2203 5.69853 26.0303C5.62831 25.8404 5.5197 25.667 5.37948 25.5209C4.3175 24.4745 2.73472 22.6034 2.24329 22.0209C2.22221 21.9651 2.22221 21.9035 2.24329 21.8477C2.27647 21.8002 2.32671 21.7674 2.38353 21.756L2.51118 21.7476C2.72191 21.721 2.92263 21.6421 3.09495 21.5179C3.26728 21.3937 3.40573 21.2283 3.49764 21.0368C3.604 20.8596 3.6666 20.6596 3.68025 20.4533C3.6939 20.2471 3.65822 20.0405 3.57615 19.8508C3.06914 18.5509 2.31101 16.2268 2.0599 15.4567C2.05846 15.4172 2.06517 15.3778 2.07961 15.341C2.09404 15.3042 2.11589 15.2707 2.1438 15.2427C2.15934 15.2263 2.17901 15.2144 2.20074 15.2083C2.22248 15.2022 2.24546 15.2021 2.26726 15.208L2.36015 15.2385H2.49859C2.89328 15.2986 3.29584 15.2027 3.6211 14.9712C3.79155 14.8423 3.92989 14.6758 4.02533 14.4846C4.12077 14.2934 4.17072 14.0828 4.17127 13.8691C4.17127 12.939 4.27315 11.5917 4.36365 10.4045C4.39481 9.99755 4.42358 9.60919 4.44875 9.22204C4.47835 9.17302 4.52381 9.1356 4.5776 9.11596C4.60266 9.10415 4.63022 9.09862 4.6579 9.09988C4.68558 9.10113 4.71253 9.10912 4.73642 9.12316C4.86852 9.26552 5.03043 9.37695 5.2106 9.44947C5.39076 9.522 5.58472 9.55382 5.77862 9.54267C6.04831 9.49564 6.30125 9.37964 6.51286 9.20594C6.72446 9.03225 6.88753 8.80677 6.98623 8.55141C7.5292 7.33481 8.397 5.54767 8.98553 4.42636C9.00523 4.3956 9.03093 4.36912 9.0611 4.34853C9.09128 4.32793 9.1253 4.31364 9.16112 4.3065H9.19049L9.24023 4.29811C9.26696 4.30857 9.292 4.32291 9.31455 4.34066L9.41823 4.52045C9.65978 4.82571 10.002 5.03515 10.3837 5.11137C10.5967 5.14984 10.8158 5.1353 11.0218 5.06904C11.2278 5.00277 11.4144 4.88682 11.565 4.73141C12.4675 3.88578 13.9622 2.58948 15.0811 1.62938C15.138 1.60883 15.2004 1.60883 15.2573 1.62938C15.3055 1.66072 15.3396 1.70947 15.3526 1.76542V1.79899C15.351 2.02123 15.4096 2.23975 15.5222 2.43136C15.6348 2.62298 15.7972 2.78054 15.9921 2.88733C16.1788 3.00504 16.3914 3.0754 16.6114 3.09232C16.8315 3.10924 17.0523 3.0722 17.2548 2.98442C18.4151 2.50078 20.2807 1.88529 21.6483 1.45199C21.6884 1.45006 21.7284 1.45635 21.7659 1.47047C21.8034 1.48459 21.8377 1.50624 21.8665 1.53409C21.8825 1.54915 21.8942 1.56819 21.9004 1.58924C21.9066 1.6103 21.9071 1.63263 21.9019 1.65395L21.8707 1.74565V1.88229C21.8094 2.26599 21.9025 2.65834 22.1296 2.97363L22.1859 3.03776C22.4655 3.3365 22.8511 3.5136 23.2599 3.53099C24.2026 3.53099 25.5654 3.63108 26.7683 3.71978C27.1842 3.75034 27.5803 3.77971 27.9759 3.80428C28.0241 3.83366 28.0614 3.87809 28.0819 3.93073C28.0953 3.95987 28.1002 3.99219 28.0961 4.02399C28.0919 4.05578 28.079 4.08577 28.0586 4.11052L27.9639 4.26814C27.7535 4.58853 27.6765 4.97839 27.7493 5.35469C27.7863 5.57842 27.8815 5.7885 28.0253 5.96385C28.1691 6.1392 28.3564 6.27366 28.5686 6.35374C29.7073 6.829 31.4171 7.68841 32.7464 8.36623C32.7836 8.38366 32.8152 8.41135 32.8372 8.44606C32.8593 8.48077 32.8711 8.52106 32.8711 8.5622C32.8711 8.60334 32.8593 8.64363 32.8372 8.67834C32.8152 8.71305 32.7836 8.74074 32.7464 8.75817L32.6109 8.86665C32.3191 9.1057 32.1193 9.43872 32.0458 9.80876C32.0081 10.029 32.026 10.2551 32.0976 10.4666C32.1693 10.6782 32.2926 10.8686 32.4563 11.0206C33.4188 11.9243 34.7541 13.3789 35.6326 14.3815C35.6581 14.3997 35.6761 14.4264 35.6833 14.4569C35.6904 14.4873 35.6863 14.5193 35.6716 14.5469C35.6624 14.5794 35.6462 14.6095 35.6242 14.6351C35.6021 14.6606 35.5747 14.6811 35.544 14.6949L35.2479 14.7441C35.0362 14.7882 34.8377 14.8809 34.668 15.015C34.4984 15.1491 34.3622 15.3208 34.2704 15.5166C34.1586 15.7012 34.0999 15.913 34.1007 16.1289C34.1016 16.3447 34.1619 16.5561 34.2752 16.7398C34.9336 18.0309 35.5101 19.3622 36.0012 20.7258V20.7306L35.9179 20.8535Z" fill="#EA3A40"/>
</svg>
