<svg width="59" height="37" viewBox="0 0 59 37" fill="none" xmlns="http://www.w3.org/2000/svg">
<rect width="57.7197" height="35.8797" fill="black" fill-opacity="0" transform="translate(0.838867 0.404785)"/>
<path fill-rule="evenodd" clip-rule="evenodd" d="M12.141 26.1157C11.1429 26.1242 10.1697 26.4279 9.34395 26.9887C8.51821 27.5494 7.87692 28.342 7.50088 29.2666C7.12485 30.1912 7.0309 31.2064 7.23088 32.1842C7.43086 33.1621 7.91581 34.059 8.62463 34.7617C9.33345 35.4644 10.2344 35.9416 11.214 36.1332C12.1936 36.3247 13.2079 36.222 14.1292 35.838C15.0505 35.454 15.8376 34.8059 16.3912 33.9754C16.9447 33.1448 17.2401 32.169 17.24 31.1709C17.2326 29.8248 16.6916 28.5367 15.7357 27.589C14.7798 26.6413 13.4871 26.1114 12.141 26.1157ZM12.141 35.0159C11.382 35.0095 10.6418 34.7785 10.0138 34.352C9.38584 33.9256 8.89812 33.3228 8.61213 32.6197C8.32613 31.9166 8.25465 31.1445 8.4067 30.4008C8.55876 29.6571 8.92753 28.9751 9.46656 28.4406C10.0056 27.9061 10.6908 27.5432 11.4357 27.3974C12.1807 27.2517 12.9521 27.3298 13.6528 27.6217C14.3535 27.9137 14.9521 28.4065 15.3731 29.0381C15.7942 29.6697 16.0189 30.4118 16.0189 31.1709C16.0133 32.1946 15.6019 33.1743 14.8749 33.8951C14.1479 34.616 13.1648 35.019 12.141 35.0159ZM55.0578 29.2815C54.9175 29.2822 54.7774 29.2914 54.6382 29.3088L47.7799 11.9801L28.1307 4.70593V4.59343H14.1618L2.85092 0.495987C2.66625 0.428402 2.47008 0.397858 2.27361 0.406101C2.07713 0.414344 1.88421 0.461211 1.70585 0.544027C1.52765 0.625378 1.36736 0.741279 1.23427 0.885017C1.10118 1.02875 0.997934 1.19747 0.93051 1.38139C0.862557 1.56433 0.831855 1.75901 0.84021 1.95398C0.848564 2.14895 0.895806 2.34028 0.979159 2.51674C1.06229 2.69438 1.17987 2.85375 1.32507 2.98559C1.47028 3.11743 1.64022 3.21913 1.82504 3.28478L11.5305 6.80087V25.1907H12.1386C13.7308 25.1857 15.2599 25.8124 16.3906 26.9334C17.5213 28.0544 18.1611 29.5781 18.1698 31.1703V31.7784H28.1307V26.8223H30.1295C30.1842 26.978 30.2384 27.1263 30.2894 27.265C30.1373 27.3129 29.9983 27.3953 29.8833 27.5059C29.7683 27.6164 29.6804 27.7521 29.6266 27.9023C29.5645 28.0695 29.5487 28.2503 29.5808 28.4257C29.613 28.6011 29.6918 28.7646 29.809 28.899C30.1094 29.259 30.8294 30.1122 31.3986 30.6978C31.2834 30.7971 31.1914 30.9207 31.1294 31.0596C31.0674 31.1986 31.0368 31.3495 31.0399 31.5017C31.0412 31.6954 31.0981 31.8847 31.2037 32.0471C31.3093 32.2095 31.4593 32.3383 31.6358 32.4181L33.7222 33.4057C33.6353 33.56 33.5895 33.7341 33.5892 33.9112C33.5889 34.0883 33.6341 34.2626 33.7204 34.4172C33.8068 34.5718 33.9315 34.7017 34.0825 34.7943C34.2335 34.8869 34.4057 34.9391 34.5827 34.946L36.9075 35.0585C36.8826 35.2299 36.9032 35.4047 36.9672 35.5656C37.0313 35.7264 37.1365 35.8676 37.2724 35.9749C37.4667 36.1338 37.7098 36.2208 37.9608 36.2212C38.0785 36.2203 38.1956 36.2029 38.3086 36.1695L40.5227 35.379C40.5667 35.5572 40.6567 35.7208 40.7838 35.8533C40.9108 35.9858 41.0704 36.0826 41.2466 36.1341C41.4228 36.1856 41.6094 36.1899 41.7878 36.1466C41.9662 36.1033 42.1301 36.0139 42.2631 35.8874L43.8923 34.316C44.0044 34.4533 44.1494 34.5599 44.3139 34.6261C44.4783 34.6923 44.6568 34.7158 44.8327 34.6945C45.0087 34.6732 45.1764 34.6078 45.3203 34.5043C45.4642 34.4008 45.5796 34.2626 45.6558 34.1026L46.7035 31.8617L46.8398 31.9176C47.0029 31.9859 47.1811 32.0099 47.3564 31.9872C47.5318 31.9644 47.698 31.8958 47.8383 31.7881C47.9742 31.6918 48.085 31.5641 48.1612 31.4159C48.2374 31.2677 48.2768 31.1034 48.2761 30.9367V28.6259H48.5887C48.7453 28.6242 48.8996 28.5872 49.0399 28.5176C49.1803 28.448 49.3031 28.3476 49.3993 28.224C49.5195 28.0999 49.6011 27.9435 49.6341 27.7739C49.6671 27.6043 49.6502 27.4288 49.5854 27.2686C49.53 27.1196 49.4638 26.9719 49.406 26.8235H51.5952L52.2033 26.7967V26.475L53.4657 29.664C52.7021 30.0536 52.1079 30.7098 51.7958 31.5082C51.4838 32.3067 51.4754 33.1919 51.7724 33.9961C52.0694 34.8003 52.6511 35.4675 53.4073 35.8715C54.1634 36.2754 55.0415 36.3878 55.8751 36.1876C56.7086 35.9873 57.4397 35.4882 57.9299 34.7849C58.42 34.0815 58.635 33.2228 58.5343 32.3715C58.4335 31.5201 58.024 30.7353 57.3832 30.1658C56.7425 29.5963 55.915 29.2816 55.0578 29.2815ZM26.9096 30.5652H19.369C19.2153 28.8677 18.4673 27.279 17.257 26.079C16.0466 24.8789 14.4515 24.1447 12.7528 24.0055V5.95621L2.24281 2.14701C2.1917 2.12874 2.14721 2.09562 2.11504 2.0519C2.08288 2.00818 2.06451 1.95584 2.06228 1.90161C2.06006 1.84738 2.07409 1.79372 2.10257 1.74751C2.13105 1.7013 2.17269 1.66466 2.22214 1.64227C2.25489 1.62661 2.29049 1.61778 2.32677 1.61632C2.36304 1.61485 2.39924 1.62079 2.43315 1.63376L13.9459 5.80418H26.9096V30.5652ZM48.3369 27.4146H48.09C47.8172 27.4146 47.5555 27.5224 47.3618 27.7146C47.1682 27.9067 47.0583 28.1677 47.0563 28.4405V30.6941L47.0417 30.688C46.9182 30.6304 46.7845 30.5979 46.6484 30.5924C46.5122 30.5868 46.3763 30.6084 46.2486 30.6558C46.1208 30.7032 46.0038 30.7755 45.9042 30.8685C45.8046 30.9615 45.7245 31.0734 45.6685 31.1976L44.6767 33.3175C44.5212 33.1573 44.3201 33.049 44.1008 33.0074L43.9792 32.9958C43.8369 32.9905 43.695 33.0138 43.5619 33.0645C43.4288 33.1152 43.3072 33.1921 43.2045 33.2907L41.6325 34.8068C41.5499 34.5553 41.3732 34.3457 41.1393 34.2218C40.9073 34.1134 40.6456 34.0862 40.3962 34.1445L38.1724 34.9351C38.1787 34.6989 38.1061 34.4674 37.9662 34.2771C37.8756 34.1538 37.7584 34.0525 37.6232 33.9808C37.488 33.909 37.3383 33.8688 37.1854 33.863L34.9774 33.7566C35.0844 33.5092 35.0896 33.2296 34.992 32.9784C34.8943 32.7272 34.7016 32.5246 34.4556 32.4145L32.4233 31.4506C32.5621 31.2973 32.6573 31.1096 32.6988 30.907L32.7109 30.7853C32.7168 30.6386 32.6928 30.4922 32.6406 30.355C32.5883 30.2178 32.5088 30.0926 32.4069 29.9869C31.9532 29.5375 31.319 28.8011 30.9395 28.3535C31.158 28.2671 31.3366 28.1026 31.4406 27.8919C31.5181 27.76 31.564 27.6118 31.5746 27.4591C31.5851 27.3064 31.5601 27.1534 31.5014 27.012C31.4783 26.9512 31.454 26.8904 31.4297 26.8223H37.0346C37.1709 27.3925 37.4953 27.9002 37.9556 28.2634C38.4158 28.6266 38.985 28.8241 39.5713 28.8241C40.1576 28.8241 40.7268 28.6266 41.1871 28.2634C41.6473 27.9002 41.9718 27.3925 42.1081 26.8223H48.1022C48.1833 27.0177 48.2613 27.2151 48.3363 27.4146H48.3369ZM38.3232 26.8229H40.8213C40.7091 27.0593 40.5321 27.259 40.3109 27.3988C40.0897 27.5386 39.8334 27.6127 39.5718 27.6127C39.3101 27.6126 39.0538 27.5383 38.8327 27.3984C38.6116 27.2585 38.4347 27.0587 38.3226 26.8223L38.3232 26.8229ZM48.9073 25.6121H28.2492C28.4215 22.7161 29.6932 19.9953 31.8047 18.0057C33.9161 16.0161 36.7076 14.9081 39.6087 14.9081C42.5098 14.9081 45.3014 16.0161 47.4128 18.0057C49.5242 19.9953 50.796 22.7161 50.9682 25.6121H48.9067H48.9073ZM39.6087 13.7017C37.1885 13.7004 34.8191 14.3959 32.7837 15.7053C30.7482 17.0147 29.1329 18.8824 28.1307 21.0854V5.99816L46.8416 12.9251L48.6659 17.5316C47.49 16.3188 46.0822 15.3548 44.5263 14.6968C42.9704 14.0389 41.298 13.7005 39.6087 13.7017ZM55.0547 35.0153C54.6081 35.0116 54.1726 34.8758 53.8031 34.625C53.4336 34.3741 53.1466 34.0196 52.9782 33.6059C52.8099 33.1922 52.7678 32.738 52.8572 32.3004C52.9466 31.8628 53.1635 31.4615 53.4806 31.147C53.7977 30.8325 54.2008 30.619 54.6391 30.5332C55.0774 30.4474 55.5313 30.4933 55.9436 30.6651C56.3558 30.8368 56.708 31.1268 56.9558 31.4984C57.2035 31.87 57.3357 32.3066 57.3357 32.7532C57.3327 33.355 57.0912 33.9311 56.6642 34.3552C56.2373 34.7793 55.6596 35.0169 55.0578 35.0159L55.0547 35.0153ZM20.8935 29.968C21.0548 29.968 21.2095 29.904 21.3235 29.7899C21.4376 29.6759 21.5016 29.5212 21.5016 29.3599V24.9694C21.5016 24.8074 21.4373 24.6521 21.3228 24.5376C21.2083 24.4232 21.053 24.3588 20.8911 24.3588C20.7292 24.3588 20.5739 24.4232 20.4594 24.5376C20.3449 24.6521 20.2806 24.8074 20.2806 24.9694V29.363C20.281 29.4432 20.2972 29.5226 20.3285 29.5966C20.3597 29.6705 20.4053 29.7376 20.4625 29.7938C20.5198 29.8501 20.5876 29.8944 20.6621 29.9243C20.7366 29.9542 20.8163 29.9691 20.8966 29.968H20.8935ZM22.8541 29.968C23.0154 29.968 23.17 29.904 23.2841 29.7899C23.3981 29.6759 23.4622 29.5212 23.4622 29.3599V24.9694C23.4622 24.8074 23.3979 24.6521 23.2834 24.5376C23.1689 24.4232 23.0136 24.3588 22.8517 24.3588C22.6897 24.3588 22.5344 24.4232 22.4199 24.5376C22.3054 24.6521 22.2411 24.8074 22.2411 24.9694V29.363C22.2415 29.4432 22.2578 29.5226 22.289 29.5966C22.3203 29.6705 22.3658 29.7376 22.4231 29.7938C22.4804 29.8501 22.5482 29.8944 22.6227 29.9243C22.6972 29.9542 22.7769 29.9691 22.8571 29.968H22.8541ZM24.8146 29.968C24.9759 29.968 25.1306 29.904 25.2446 29.7899C25.3587 29.6759 25.4227 29.5212 25.4227 29.3599V24.9694C25.4227 24.8074 25.3584 24.6521 25.2439 24.5376C25.1294 24.4232 24.9741 24.3588 24.8122 24.3588C24.6503 24.3588 24.495 24.4232 24.3805 24.5376C24.266 24.6521 24.2017 24.8074 24.2017 24.9694V29.363C24.2021 29.4432 24.2183 29.5226 24.2496 29.5966C24.2808 29.6705 24.3264 29.7376 24.3836 29.7938C24.4409 29.8501 24.5087 29.8944 24.5832 29.9243C24.6577 29.9542 24.7374 29.9691 24.8177 29.968H24.8146Z" fill="#EA3A40"/>
</svg>
