<svg width="12" height="36" viewBox="0 0 12 36" fill="none" xmlns="http://www.w3.org/2000/svg">
<rect width="35.0002" height="11.656" fill="black" fill-opacity="0" transform="translate(11.7578 0.166016) rotate(90)"/>
<path fill-rule="evenodd" clip-rule="evenodd" d="M11.7578 7.51885H9.8496L9.8496 0.166016L2.00957 0.166016L2.00957 7.51885H0.101825L0.101825 35.1662H11.7578L11.7578 7.51885ZM3.05351 34.2328L1.04683 30.0156L1.04683 22.5419L6.60719 34.2328H3.05304H3.05351ZM1.04683 20.3429L1.04683 13.7073L10.8067 34.2328H7.65159L1.04683 20.3429ZM8.43606 8.45079L10.8119 13.4493L10.8119 22.1583L4.29624 8.45079L8.4356 8.45079H8.43606ZM10.8119 8.45079V11.2508L9.48 8.45079H10.8119ZM2.9569 1.09935L8.90413 1.09935L8.90413 7.52072L2.9569 7.52072L2.9569 1.09935ZM2.00957 8.45079H3.2509L10.8109 24.3549L10.8109 32.0498L1.04916 11.5107V8.45079H2.00957ZM1.04729 32.2145L2.00957 34.2328H1.04916V32.2122L1.04729 32.2145Z" fill="#EA3A40"/>
</svg>
