<svg width="16" height="37" viewBox="0 0 16 37" fill="none" xmlns="http://www.w3.org/2000/svg">
<rect width="36.2666" height="14.4926" fill="black" fill-opacity="0" transform="translate(0.733398 36.4863) rotate(-90)"/>
<path fill-rule="evenodd" clip-rule="evenodd" d="M9.39597 8.35709H8.05732V0.927258L7.40056 1.1594C5.03615 1.99461 3.44747 4.49927 3.44747 7.39227C3.44976 7.7158 3.47254 8.03886 3.51566 8.35951H0.733398L0.878484 8.9563C1.26837 10.5207 2.17472 11.9077 3.45085 12.893L3.45085 33.4037C3.46529 34.2262 3.80217 35.0101 4.38895 35.5867C4.97572 36.1633 5.76545 36.4863 6.58808 36.4863C7.41072 36.4863 8.20045 36.1633 8.78722 35.5867C9.374 35.0101 9.71088 34.2262 9.72532 33.4037L9.72532 14.2123C11.2649 13.8505 12.6405 12.9873 13.636 11.7584C14.6314 10.5295 15.1901 9.0046 15.2243 7.42348C15.2585 5.84237 14.7661 4.29474 13.8247 3.02398C12.8833 1.75322 11.5462 0.831402 10.0237 0.4035L9.39597 0.219727V8.35709ZM4.4297 7.38985C4.4297 5.22904 5.48882 3.26894 7.07557 2.36699V8.32856H4.4945C4.45108 8.01835 4.42926 7.7055 4.42921 7.39227L4.4297 7.38985ZM14.2472 7.26556C14.2378 8.71504 13.7231 10.1158 12.7917 11.2265C11.8603 12.3372 10.5706 13.0882 9.14498 13.35L8.74648 13.4254L8.74648 33.4037C8.738 33.9697 8.5072 34.5097 8.10393 34.9069C7.70067 35.3042 7.15731 35.5269 6.59123 35.5269C6.02515 35.5269 5.48179 35.3042 5.07853 34.9069C4.67526 34.5097 4.44446 33.9697 4.43598 33.4037L4.43598 12.4069L4.23625 12.2618C3.21744 11.528 2.44364 10.5039 2.01596 9.32336H10.3777V1.55161C11.5137 2.01789 12.4868 2.80901 13.1751 3.82587C13.8634 4.84274 14.2363 6.04011 14.2472 7.26798V7.26556ZM6.10156 13.3988L6.10156 33.4743C6.10156 33.6045 6.15328 33.7293 6.24534 33.8214C6.33739 33.9135 6.46225 33.9652 6.59244 33.9652C6.72263 33.9652 6.84748 33.9135 6.93954 33.8214C7.03159 33.7293 7.08331 33.6045 7.08331 33.4743L7.08331 13.3988C7.08331 13.2686 7.03159 13.1438 6.93954 13.0517C6.84748 12.9597 6.72263 12.9079 6.59244 12.9079C6.46225 12.9079 6.33739 12.9597 6.24534 13.0517C6.15328 13.1438 6.10156 13.2686 6.10156 13.3988Z" fill="#EA3A40"/>
</svg>
