<svg width="30" height="38" viewBox="0 0 30 38" fill="none" xmlns="http://www.w3.org/2000/svg">
<rect width="28.5008" height="36.2738" fill="black" fill-opacity="0" transform="translate(0.604492 0.89209)"/>
<path fill-rule="evenodd" clip-rule="evenodd" d="M24.6501 7.18106L24.656 7.16292H20.1438V0.89209H9.72346V7.16292H5.47619C4.19921 7.16601 2.97559 7.67545 2.07372 8.5795C1.17186 9.48356 0.665377 10.7084 0.66538 11.9854V31.0291H0.604492V37.1659H11.5514V32.3266H18.1584V37.1659H29.1053V11.9854C29.1046 10.7706 28.6453 9.60085 27.8193 8.71011C26.9933 7.81936 25.8614 7.27327 24.6501 7.18106ZM22.8928 8.45841L17.0365 27.0552C16.9771 27.264 16.8766 27.4588 16.7409 27.6282C16.6053 27.7976 16.4371 27.9382 16.2464 28.0418C16.0556 28.1454 15.8461 28.2098 15.6301 28.2314C15.4142 28.2529 15.1961 28.2311 14.9886 28.1672C14.7812 28.1033 14.5886 27.9987 14.4221 27.8594C14.2556 27.7201 14.1187 27.549 14.0192 27.3561C13.9198 27.1631 13.8598 26.9523 13.8429 26.7359C13.8261 26.5195 13.8525 26.3019 13.9209 26.0959L19.3244 8.45841H22.8941H22.8928ZM11.0164 2.18758H18.8541V7.16292H11.0164V2.18758ZM10.2559 35.8704H1.89545V32.3266H10.2559V35.8704ZM27.8098 35.8704H19.4539V32.3266H27.8163V35.8704H27.8098ZM18.1584 31.0311H1.95763V11.9873C1.95746 11.0533 2.32784 10.1574 2.98749 9.49617C3.64715 8.83494 4.54219 8.46241 5.47619 8.46036H17.9706L12.685 25.7176C12.5502 26.1555 12.5201 26.6189 12.5969 27.0706C12.6738 27.5222 12.8555 27.9496 13.1276 28.3182C13.3996 28.6869 13.7543 28.9866 14.1632 29.1933C14.5721 29.3999 15.0238 29.5078 15.4819 29.5082C16.1063 29.5063 16.7138 29.3047 17.2155 28.9329C17.7172 28.5612 18.0868 28.0387 18.2705 27.4419L24.2485 8.46295H24.2965C25.2305 8.46501 26.1255 8.83753 26.7852 9.49876C27.4448 10.16 27.8152 11.0559 27.815 11.9899V31.0337H18.1584V31.0311Z" fill="#EA3A40"/>
</svg>
