<svg width="20" height="20" viewBox="0 0 20 20" fill="none" xmlns="http://www.w3.org/2000/svg">
<rect width="18.223" height="18.2222" fill="black" fill-opacity="0" transform="translate(0.863281 0.979492)"/>
<rect width="18.223" height="18.2222" fill="black" fill-opacity="0" transform="translate(0.863281 0.979492)"/>
<rect width="18.223" height="18.2222" fill="black" fill-opacity="0" transform="translate(0.863281 0.979492)"/>
<rect width="6.04365" height="6.04416" fill="black" fill-opacity="0" transform="translate(6.95312 7.06836)"/>
<path d="M7.26197 13.1125C7.18288 13.1125 7.10379 13.0824 7.04365 13.0219C6.92295 12.9012 6.92295 12.7051 7.04365 12.5844L12.4692 7.15888C12.5899 7.03819 12.7856 7.03819 12.9062 7.15888C13.0269 7.27958 13.0269 7.47524 12.9062 7.59594L7.48029 13.0219C7.42015 13.0824 7.34106 13.1125 7.26197 13.1125Z" fill="#A0A0A0"/>
<rect width="6.04365" height="6.04375" fill="black" fill-opacity="0" transform="translate(6.95312 7.06934)"/>
<path d="M12.6879 13.1131C12.6088 13.1131 12.5297 13.083 12.4696 13.0225L7.04365 7.59692C6.92295 7.47622 6.92295 7.28055 7.04365 7.15986C7.16434 7.03916 7.36001 7.03916 7.48071 7.15986L12.9062 12.5854C13.0269 12.7061 13.0269 12.9022 12.9062 13.0229C12.8461 13.083 12.767 13.1131 12.6879 13.1131Z" fill="#A0A0A0"/>
<path d="M9.97478 19.2017C4.95046 19.2017 0.863281 15.1145 0.863281 10.091C0.863281 5.06708 4.95046 0.979492 9.97478 0.979492C14.9991 0.979492 19.0863 5.06667 19.0863 10.091C19.0863 15.1153 14.9983 19.2017 9.97478 19.2017ZM9.97478 1.59739C5.29154 1.59739 1.48118 5.40775 1.48118 10.091C1.48118 14.7742 5.29154 18.5846 9.97478 18.5846C14.658 18.5846 18.4684 14.7742 18.4684 10.091C18.4684 5.40775 14.658 1.59739 9.97478 1.59739Z" fill="#A0A0A0"/>
</svg>
