<svg width="112" height="34" viewBox="0 0 112 34" fill="none" xmlns="http://www.w3.org/2000/svg">
<path fill-rule="evenodd" clip-rule="evenodd" d="M39.5264 12.9701H42.9045L43.5826 14.6815H45.925L42.3005 5.96568H40.2539L36.5922 14.6814H38.8854L39.5264 12.9701ZM41.2401 8.29232L42.325 11.2829H40.1306L41.2401 8.29232ZM53.5786 14.6814L51.3225 8.55093H48.9061L46.5266 14.6814H48.7087L50.1027 10.9514L51.3973 14.6814H53.5794H53.5786ZM54.6078 8.55093V14.6814H56.6304V11.3699L58.2331 13.5119H58.5788L60.1692 11.3454V14.6817H62.1918V8.55093H60.4164L58.4177 11.0252L56.3832 8.55093H54.6078ZM67.4988 12.2192C67.5076 12.3861 67.4833 12.553 67.4272 12.7104C67.3711 12.8678 67.2844 13.0126 67.1721 13.1363C67.0467 13.2547 66.8982 13.3459 66.7359 13.4041C66.5736 13.4624 66.401 13.4864 66.2289 13.4747C66.1254 13.4743 66.0222 13.464 65.9207 13.444C65.8208 13.4262 65.7248 13.3907 65.6372 13.3394C65.5551 13.2903 65.4855 13.223 65.4337 13.1425C65.3784 13.0541 65.3505 12.9513 65.3535 12.8471C65.3502 12.7662 65.3638 12.6855 65.3936 12.6102C65.4234 12.5349 65.4686 12.4667 65.5264 12.4101C65.6511 12.2936 65.8008 12.2072 65.9641 12.1577C66.1605 12.0964 66.3631 12.0571 66.5681 12.0406C66.7941 12.0202 67.0181 12.01 67.24 12.0099H67.4993V12.2192H67.4988ZM64.8111 10.4836C65.015 10.3015 65.2459 10.152 65.4955 10.0404C65.756 9.91869 66.0401 9.85567 66.3276 9.85575C66.6063 9.84644 66.8813 9.92151 67.1166 10.0711C67.2236 10.1456 67.3095 10.2465 67.3657 10.3642C67.4218 10.4818 67.4465 10.612 67.4371 10.742V10.8406C66.98 10.8413 66.5232 10.8659 66.0687 10.9144C65.6321 10.9562 65.203 11.0555 64.7926 11.2098C64.4346 11.3413 64.1133 11.5566 63.8556 11.8377C63.6034 12.1362 63.4737 12.5192 63.4926 12.9095C63.482 13.2262 63.5543 13.5402 63.7023 13.8205C63.8326 14.0564 64.016 14.2587 64.2382 14.4114C64.4577 14.56 64.7019 14.6684 64.9594 14.7315C65.2092 14.7955 65.4659 14.8286 65.7238 14.83C66.0778 14.8332 66.4286 14.7619 66.7532 14.6207C67.045 14.5019 67.2926 14.2954 67.462 14.0298H67.499V14.6822H69.3487V11.5915C69.3566 11.1049 69.3048 10.6192 69.1945 10.1451C69.11 9.77638 68.9436 9.43139 68.7075 9.13575C68.477 8.8633 68.1765 8.65899 67.8383 8.54488C67.4146 8.40783 66.9706 8.34354 66.5254 8.35473C66.023 8.35516 65.5244 8.4429 65.052 8.61403C64.5808 8.78049 64.1502 9.04478 63.7884 9.38952L64.8111 10.4836ZM71.7595 10.1512C71.8844 10.049 72.021 9.96193 72.1665 9.89188C72.3555 9.80459 72.5623 9.76246 72.7705 9.76879C73.0845 9.74875 73.3975 9.82156 73.6704 9.97814C73.7595 10.0271 73.8346 10.098 73.8886 10.1842C73.9425 10.2704 73.9735 10.3689 73.9786 10.4705C73.9811 10.5166 73.9743 10.5628 73.9584 10.6061C73.9425 10.6495 73.918 10.6892 73.8863 10.7229C73.8131 10.791 73.7239 10.8396 73.627 10.8644C73.4982 10.9004 73.366 10.9232 73.2325 10.9322C73.0803 10.9445 72.918 10.9507 72.7456 10.9507H71.7345V12.2064H72.7456C72.9184 12.2064 73.0869 12.2146 73.251 12.231C73.4038 12.2452 73.5545 12.2761 73.7005 12.3233C73.8218 12.3603 73.9335 12.4236 74.0277 12.5086C74.0675 12.5454 74.0991 12.5902 74.1204 12.6401C74.1416 12.69 74.152 12.7438 74.151 12.798C74.1522 12.9004 74.1205 13.0005 74.0606 13.0836C74.0007 13.1667 73.9156 13.2284 73.818 13.2595C73.3639 13.416 72.8753 13.4437 72.4064 13.3396C72.2389 13.3014 72.0742 13.252 71.9134 13.1918C71.771 13.1391 71.6328 13.0756 71.5002 13.0016C71.3972 12.9453 71.2984 12.8818 71.2044 12.8115L70.329 14.0179C70.4195 14.0918 70.5405 14.18 70.6921 14.2826C70.8709 14.3994 71.0609 14.4984 71.2592 14.578C71.515 14.6818 71.7789 14.7641 72.0482 14.8242C72.3863 14.8978 72.7316 14.9329 73.0776 14.9287C73.4802 14.9307 73.8822 14.8998 74.2798 14.8364C74.6179 14.7861 74.9464 14.6844 75.2537 14.5348C75.5146 14.4077 75.7377 14.2146 75.9009 13.9747C76.0631 13.7195 76.1447 13.4214 76.1352 13.1192C76.1403 12.8948 76.0895 12.6726 75.9872 12.4728C75.8962 12.2969 75.7757 12.138 75.6307 12.0031C75.4965 11.8796 75.3422 11.7797 75.1745 11.7077C75.0368 11.6459 74.8915 11.6024 74.7424 11.5784V11.5423C74.8728 11.4896 74.9986 11.426 75.1184 11.3521C75.2494 11.2713 75.3696 11.1741 75.476 11.0629C75.5913 10.9412 75.6833 10.7993 75.7473 10.6444C75.8207 10.4605 75.8563 10.2637 75.852 10.0658C75.8588 9.80399 75.7941 9.5453 75.6648 9.31755C75.5356 9.0898 75.3466 8.90161 75.1184 8.77324C74.6292 8.46969 73.945 8.31785 73.0657 8.31773C72.6917 8.31128 72.3186 8.35476 71.9561 8.44704C71.6765 8.51933 71.4087 8.63127 71.1609 8.77947C70.9634 8.89803 70.7848 9.04531 70.6307 9.21648C70.5096 9.35194 70.4042 9.50063 70.3164 9.65971L71.4629 10.5215C71.5377 10.381 71.6381 10.2558 71.7588 10.1522L71.7595 10.1512ZM79.4328 12.3661H81.4917V14.6814H83.5142V8.55093H81.4917V10.8155H79.4328V8.55093H77.4102V14.6814H79.4328V12.3661ZM85.2066 8.55007V14.6814H88.6467C89.0091 14.6878 89.3699 14.6316 89.7131 14.5152C89.9986 14.418 90.261 14.263 90.4838 14.0597C90.6878 13.8688 90.8477 13.6357 90.9523 13.3766C91.0604 13.1065 91.1149 12.818 91.1125 12.5271C91.1146 12.2444 91.0687 11.9634 90.9768 11.6961C90.8876 11.4397 90.7396 11.2078 90.5446 11.019C90.3233 10.812 90.0577 10.6583 89.7679 10.5695C89.3885 10.4544 88.9932 10.4004 88.5967 10.4094H87.228V8.55093H85.2054L85.2066 8.55007ZM87.2292 11.8245H88.1908C88.4317 11.816 88.6709 11.8667 88.8875 11.9722C88.9831 12.03 89.0601 12.1142 89.1092 12.2146C89.1582 12.3151 89.1773 12.4275 89.1641 12.5385C89.1768 12.649 89.1588 12.761 89.1121 12.8619C89.0653 12.9629 88.9916 13.0491 88.8991 13.1109C88.6886 13.2215 88.4525 13.2746 88.2149 13.2647H87.228V11.8254L87.2292 11.8245ZM91.6418 8.55093V14.6814H93.6644V8.55093H91.6418ZM100.086 11.136L97.3856 14.6814H95.363V8.55093H97.3856V12.0723L100.086 8.55093H102.108V14.6814H100.086V11.136ZM96.881 6.16276C96.9769 6.62696 97.2294 7.04413 97.5961 7.34448C97.9867 7.63555 98.4656 7.78333 98.9523 7.763C99.4214 7.77819 99.8827 7.63987 100.266 7.36903C100.65 7.06599 100.918 6.63993 101.024 6.16258L99.6681 5.92869C99.637 6.10768 99.5455 6.2706 99.4088 6.39025C99.282 6.49926 99.1198 6.55833 98.9526 6.55638C98.7864 6.55869 98.6247 6.50196 98.4964 6.3963C98.357 6.27623 98.2651 6.11035 98.2371 5.92852L96.881 6.16276ZM38.7392 24.4201V18.6098H36.6433V27.3253H39.0104L42.6474 21.5889H42.6844V27.3253H44.7803V18.6098H42.4007L38.7762 24.4201H38.7392ZM48.5516 25.011H50.6104V27.3253H52.633V21.1949H50.6104V23.4595H48.5516V21.1949H46.529V27.3253H48.5516V25.011ZM59.7114 21.8221C59.5795 21.6922 59.4325 21.5786 59.2737 21.4834C59.0986 21.3775 58.9126 21.2906 58.719 21.2241C58.5137 21.1535 58.3035 21.0979 58.0901 21.0578C57.8727 21.0168 57.6519 20.9962 57.4306 20.9963C56.9722 20.9932 56.5167 21.0703 56.0848 21.2241C55.68 21.3667 55.3076 21.5885 54.9894 21.8765C54.6761 22.1641 54.4267 22.5143 54.2574 22.9044C53.902 23.7764 53.902 24.7529 54.2574 25.625C54.4267 26.0151 54.676 26.3653 54.9894 26.6529C55.3068 26.9405 55.6796 27.1604 56.0848 27.299C56.5216 27.4496 56.9809 27.5245 57.4429 27.5207C57.879 27.5232 58.3124 27.4525 58.7251 27.3115C59.0922 27.193 59.4289 26.9955 59.7114 26.7329L58.5895 25.3664C58.459 25.5192 58.2913 25.6358 58.1026 25.705C57.9081 25.7816 57.7011 25.8212 57.4922 25.8219C57.2862 25.8252 57.0821 25.7832 56.8942 25.6988C56.7203 25.619 56.5649 25.5037 56.4382 25.3603C56.3096 25.2149 56.2111 25.0455 56.1484 24.8618C56.0816 24.6681 56.0482 24.4644 56.0494 24.2595C56.0481 24.0538 56.0836 23.8496 56.1542 23.6564C56.2202 23.4742 56.3183 23.3054 56.4439 23.1578C56.5672 23.0143 56.7182 22.897 56.8878 22.8131C57.0681 22.7252 57.2666 22.6809 57.4673 22.6838C57.676 22.6846 57.8822 22.7309 58.0713 22.8193C58.2541 22.8985 58.4149 23.0211 58.5397 23.1763L59.7114 21.8221ZM60.4534 22.7576H62.1548V27.3246H64.1773V22.7583H65.891V21.1949H60.4534V22.7583V22.7576ZM73.6142 23.0098C73.4865 22.6342 73.29 22.2857 73.0348 21.982C72.7822 21.6852 72.469 21.4459 72.1163 21.2803C71.7382 21.1041 71.3252 21.0155 70.9081 21.021C70.4984 21.0107 70.093 21.1059 69.7307 21.2976C69.4281 21.4569 69.1616 21.6769 68.9478 21.9439H68.9108V21.193H66.9875V30.2779H69.01V26.6482H69.0346C69.2374 26.9224 69.5098 27.1373 69.8237 27.2705C70.1606 27.4223 70.5261 27.5 70.8955 27.4984C71.322 27.5058 71.7443 27.413 72.1284 27.2275C72.4813 27.0539 72.7942 26.8086 73.0469 26.5073C73.302 26.1999 73.4965 25.847 73.6203 25.4672C73.7522 25.0702 73.8188 24.6545 73.8175 24.2362C73.8192 23.8191 73.7505 23.4047 73.6142 23.0105V23.0098ZM71.7645 24.8194C71.7067 25.0052 71.6147 25.1785 71.4933 25.3304C71.3711 25.4805 71.2177 25.6023 71.0438 25.6874C70.8477 25.7811 70.6324 25.8275 70.4151 25.8228C70.2019 25.8266 69.9907 25.7803 69.7987 25.6874C69.6222 25.6005 69.465 25.4791 69.3362 25.3304C69.208 25.1814 69.1078 25.0104 69.0405 24.8256C68.9008 24.4526 68.9008 24.0415 69.0405 23.6685C69.1078 23.4838 69.208 23.3129 69.3362 23.1639C69.465 23.0151 69.6222 22.8937 69.7987 22.8067C69.9907 22.714 70.2019 22.6676 70.4151 22.6714C70.6324 22.6668 70.8477 22.7132 71.0438 22.8067C71.2165 22.8911 71.3696 23.0106 71.4933 23.1576C71.6146 23.3051 71.7066 23.4743 71.7645 23.6562C71.8259 23.8429 71.8571 24.0382 71.857 24.2348C71.857 24.4335 71.8259 24.631 71.7649 24.8201L71.7645 24.8194ZM81.1997 21.1942H79.0549L77.8343 25.1334H77.7973L76.4289 21.1942H74.185L76.7494 27.2261L76.5521 27.7309C76.4757 27.9562 76.3541 28.1636 76.1946 28.3402C76.1017 28.4196 75.9938 28.4795 75.8773 28.5165C75.7609 28.5535 75.6382 28.5668 75.5165 28.5556C75.4069 28.5546 75.2976 28.5443 75.1898 28.5249C75.079 28.5063 74.9698 28.4795 74.863 28.4448L74.6412 30.1436C74.8133 30.1892 74.9884 30.2221 75.1652 30.2421C75.3594 30.2663 75.555 30.2787 75.7507 30.2791C76.0906 30.2856 76.4295 30.2399 76.7556 30.1436C77.0261 30.0603 77.2775 29.9243 77.4953 29.7436C77.7097 29.5613 77.8929 29.3453 78.0378 29.104C78.2004 28.8316 78.3386 28.5453 78.4507 28.2484L81.1997 21.1942ZM82.1735 21.1942V27.3246H84.196V24.0139L85.7987 26.1559H86.1444L87.7348 23.9893V27.3257H89.7574V21.1949H87.982L85.9849 23.6692L83.9506 21.1949H82.1752L82.1735 21.1942ZM93.0721 23.5577C93.0805 23.4007 93.1225 23.2474 93.1954 23.1082C93.269 22.9652 93.3694 22.8377 93.4912 22.7327C93.619 22.6235 93.7654 22.538 93.9234 22.4803C94.0971 22.4171 94.2809 22.3859 94.4658 22.388C94.6329 22.3754 94.8007 22.3998 94.9572 22.4594C95.1138 22.5189 95.2554 22.6123 95.3718 22.7327C95.5723 22.9601 95.6801 23.2544 95.674 23.5575H93.0725L93.0721 23.5577ZM97.3074 22.93C97.1689 22.5418 96.9529 22.1858 96.6727 21.8836C96.4 21.5955 96.0675 21.3706 95.6985 21.225C95.3021 21.0698 94.8796 20.9924 94.4539 20.9971C94.0075 20.9932 93.5643 21.0725 93.147 21.231C92.7574 21.3788 92.4012 21.6027 92.0991 21.8896C91.7966 22.1827 91.5574 22.5346 91.3964 22.9237C91.2188 23.355 91.1306 23.8177 91.1371 24.284C91.1283 24.757 91.2186 25.2266 91.4021 25.6627C91.568 26.05 91.8162 26.3965 92.1295 26.6783C92.4439 26.957 92.8106 27.1704 93.2082 27.3061C93.6285 27.4512 94.0704 27.5241 94.5151 27.5215C95.0821 27.5336 95.6447 27.4179 96.161 27.1831C96.6207 26.9685 97.0146 26.6348 97.3019 26.2167L95.8956 25.3313C95.7514 25.5237 95.566 25.6814 95.353 25.7928C95.1007 25.9189 94.8211 25.9803 94.5393 25.9714C94.186 25.9714 93.8422 25.8569 93.5593 25.6452C93.4266 25.5461 93.3137 25.4229 93.2263 25.2822C93.1392 25.1404 93.0865 24.9802 93.0723 24.8144H97.523C97.5313 24.7367 97.5354 24.6586 97.5353 24.5805V24.3344C97.5433 23.8566 97.4661 23.3813 97.3073 22.9307L97.3074 22.93ZM100.932 25.0103H102.991V27.3246H105.014V21.1949H102.991V23.4595H100.932V21.1949H98.9096V27.3253H100.932V25.011V25.0103ZM106.103 22.7576H107.804V27.3246H109.827V22.7583H111.54V21.1949H106.102V22.7583L106.103 22.7576ZM12.5984 5.61701L14.7834 13.2296L22.711 13.1186C22.8244 13.1307 22.9319 13.1755 23.0202 13.2476C23.1086 13.3197 23.1741 13.4159 23.2088 13.5246C23.2434 13.6333 23.2457 13.7497 23.2153 13.8596C23.1849 13.9696 23.1232 14.0683 23.0377 14.1438L16.5678 18.7687L19.1746 26.2809C19.2022 26.3912 19.1965 26.5073 19.1582 26.6144C19.1198 26.7216 19.0505 26.8149 18.9591 26.8827C18.8677 26.9504 18.7583 26.9896 18.6446 26.9951C18.531 27.0007 18.4182 26.9724 18.3207 26.9139L12.0716 21.8791L5.82121 26.9139C5.72361 26.9722 5.61092 27.0004 5.49734 26.9947C5.38378 26.9891 5.27442 26.9499 5.18307 26.8822C5.09172 26.8145 5.02248 26.7213 4.98407 26.6142C4.94565 26.5072 4.9398 26.3912 4.96724 26.2809L7.05083 18.1745L1.10311 14.1425C1.0176 14.0671 0.955896 13.9683 0.925522 13.8584C0.895148 13.7485 0.897417 13.6321 0.932052 13.5234C0.966687 13.4147 1.03219 13.3185 1.12058 13.2464C1.20897 13.1743 1.31642 13.1295 1.42983 13.1174L8.43862 13.2296L11.5425 5.61701C11.5845 5.51127 11.6572 5.42058 11.7514 5.35668C11.8455 5.29278 11.9566 5.25862 12.0704 5.25862C12.1842 5.25862 12.2953 5.29278 12.3895 5.35668C12.4836 5.42058 12.5564 5.51127 12.5984 5.61701ZM12.5792 0.765625C13.3827 0.798643 16.2936 1.09217 17.8197 1.80284C17.1337 3.67241 16.3135 4.34885 17.6797 4.8799C18.4721 5.18691 18.6754 4.34279 19.5724 2.57452C20.9515 3.20739 22.8673 4.66986 23.5802 5.43411C22.3838 6.8563 21.6095 7.35624 22.1652 7.98721C23.0088 8.94265 23.1969 8.33208 24.8399 6.92113C25.5374 7.64234 26.9153 9.73059 27.3589 11.2677C23.5364 11.2677 20.2962 11.0776 16.171 11.0527C14.921 7.34431 14.0757 4.56839 12.5792 0.765625ZM27.9126 12.5544C28.1201 13.3304 28.7666 16.3826 28.5417 18.0497C26.5508 17.9527 25.66 17.3722 25.5592 18.8332C25.502 19.6802 26.3692 19.6226 28.3263 19.9511C28.1325 21.4551 27.3064 23.7172 26.7878 24.6248C25.0722 23.9077 24.3636 23.3182 23.9264 24.037C23.2649 25.1261 23.9045 25.1237 25.7416 26.2696C25.2601 27.1497 23.6753 29.086 22.3386 29.9671C21.1759 26.2318 20.0659 23.3675 18.9464 19.5604C21.6722 17.2485 24.6786 15.0892 27.9117 12.5547L27.9126 12.5544ZM21.1035 30.9222C20.4208 31.3468 17.6857 32.8525 16.0234 33.1228C15.5369 31.1915 15.8336 30.1716 14.4053 30.5001C13.5773 30.6919 13.885 31.5039 14.14 33.4699C12.6436 33.7223 10.2361 33.5909 9.21601 33.3602C9.4034 31.5119 9.76193 30.6634 8.94668 30.4542C7.71101 30.1389 7.89961 30.7495 7.33693 32.8398C6.354 32.636 4.51675 31.8569 3.28385 30.8359C6.63145 28.5105 8.99111 26.8823 12.2061 24.5057C15.3725 26.8548 17.7033 28.621 20.9056 30.9222H21.1038H21.1035Z" fill="white"/>
</svg>
