<svg width="131" height="40" viewBox="0 0 131 40" fill="none" xmlns="http://www.w3.org/2000/svg">
<rect width="130.199" height="38.6484" fill="black" fill-opacity="0" transform="translate(0 0.624023)"/>
<path fill-rule="evenodd" clip-rule="evenodd" d="M45.4513 14.9866H49.4267L50.2247 17.0006H52.9813L48.7159 6.74356H46.3074L41.9982 17.0004H44.697L45.4513 14.9866ZM47.468 9.4816L48.7448 13.001H46.1623L47.468 9.4816ZM61.9882 17.0004L59.3332 9.78594H56.4895L53.6892 17.0004H56.2572L57.8977 12.6108L59.4212 17.0004H61.9892H61.9882ZM63.1994 9.78594V17.0004H65.5796V13.1034L67.4657 15.6241H67.8726L69.7442 13.0745V17.0008H72.1244V9.78594H70.0351L67.683 12.6977L65.2887 9.78594H63.1994ZM78.3698 14.1028C78.3802 14.2992 78.3515 14.4957 78.2855 14.6809C78.2195 14.8661 78.1175 15.0365 77.9853 15.1821C77.8378 15.3214 77.663 15.4287 77.472 15.4973C77.281 15.5658 77.0779 15.5941 76.8754 15.5804C76.7536 15.5799 76.6321 15.5678 76.5127 15.5442C76.395 15.5232 76.2821 15.4815 76.179 15.4211C76.0824 15.3634 76.0004 15.2841 75.9396 15.1894C75.8745 15.0854 75.8416 14.9644 75.8452 14.8417C75.8412 14.7465 75.8573 14.6516 75.8923 14.563C75.9274 14.4744 75.9806 14.3941 76.0486 14.3274C76.1954 14.1904 76.3716 14.0888 76.5637 14.0304C76.7948 13.9583 77.0332 13.9121 77.2745 13.8927C77.5405 13.8687 77.8041 13.8566 78.0653 13.8565H78.3704V14.1028H78.3698ZM75.2068 12.0603C75.4468 11.8461 75.7185 11.6701 76.0122 11.5387C76.3188 11.3955 76.6531 11.3214 76.9915 11.3215C77.3195 11.3105 77.6431 11.3989 77.92 11.5749C78.046 11.6625 78.147 11.7814 78.2131 11.9198C78.2792 12.0582 78.3082 12.2115 78.2972 12.3645V12.4804C77.7592 12.4813 77.2217 12.5103 76.6868 12.5673C76.1731 12.6165 75.6681 12.7334 75.185 12.915C74.7638 13.0697 74.3857 13.323 74.0824 13.6539C73.7856 14.0051 73.633 14.4558 73.6552 14.9152C73.6427 15.2879 73.7278 15.6575 73.902 15.9873C74.0553 16.2649 74.2712 16.503 74.5326 16.6826C74.791 16.8575 75.0784 16.9851 75.3814 17.0594C75.6754 17.1346 75.9775 17.1736 76.2809 17.1753C76.6976 17.1791 77.1103 17.0951 77.4924 16.929C77.8357 16.7891 78.1272 16.5462 78.3265 16.2336H78.37V17.0014H80.5468V13.3642C80.556 12.7915 80.4951 12.2199 80.3653 11.662C80.2659 11.2281 80.07 10.8221 79.7922 10.4742C79.521 10.1535 79.1673 9.9131 78.7694 9.77882C78.2707 9.61753 77.7482 9.54187 77.2243 9.55504C76.633 9.55554 76.0463 9.65879 75.4904 9.86019C74.9359 10.0561 74.4291 10.3671 74.0033 10.7728L75.2068 12.0603ZM83.3839 11.6691C83.5309 11.5489 83.6917 11.4464 83.8628 11.364C84.0853 11.2613 84.3286 11.2117 84.5736 11.2191C84.9431 11.1956 85.3115 11.2812 85.6327 11.4655C85.7375 11.5231 85.8259 11.6066 85.8894 11.708C85.9529 11.8094 85.9894 11.9254 85.9954 12.0449C85.9984 12.0992 85.9902 12.1535 85.9716 12.2045C85.9529 12.2556 85.924 12.3023 85.8868 12.3419C85.8005 12.422 85.6956 12.4793 85.5816 12.5085C85.43 12.5509 85.2744 12.5776 85.1174 12.5883C84.9382 12.6028 84.7472 12.61 84.5443 12.61H83.3544V14.0878H84.5443C84.7477 14.0878 84.946 14.0974 85.1391 14.1167C85.3189 14.1334 85.4963 14.1698 85.6681 14.2253C85.8109 14.2689 85.9423 14.3434 86.0532 14.4434C86.1 14.4867 86.1372 14.5394 86.1622 14.5981C86.1872 14.6568 86.1995 14.7201 86.1982 14.7839C86.1997 14.9045 86.1624 15.0223 86.0918 15.1201C86.0213 15.2179 85.9212 15.2904 85.8064 15.3271C85.2719 15.5112 84.697 15.5438 84.1451 15.4213C83.9481 15.3764 83.7542 15.3182 83.5649 15.2474C83.3974 15.1854 83.2348 15.1106 83.0787 15.0236C82.9576 14.9573 82.8412 14.8825 82.7307 14.7998L81.7005 16.2196C81.8069 16.3065 81.9493 16.4103 82.1277 16.531C82.3382 16.6686 82.5618 16.785 82.7951 16.8787C83.0961 17.0008 83.4067 17.0977 83.7236 17.1684C84.1215 17.2551 84.5279 17.2964 84.9351 17.2915C85.4088 17.2938 85.8819 17.2574 86.3498 17.1828C86.7477 17.1236 87.1342 17.0039 87.4959 16.8279C87.803 16.6783 88.0655 16.4511 88.2576 16.1687C88.4485 15.8684 88.5445 15.5176 88.5332 15.1619C88.5393 14.8978 88.4794 14.6364 88.3591 14.4013C88.2521 14.1943 88.1102 14.0073 87.9396 13.8485C87.7816 13.7031 87.6001 13.5856 87.4028 13.5009C87.2406 13.4281 87.0696 13.3769 86.8942 13.3487V13.3062C87.0477 13.2442 87.1957 13.1694 87.3366 13.0824C87.4909 12.9873 87.6323 12.873 87.7575 12.7421C87.8932 12.5988 88.0014 12.4319 88.0767 12.2495C88.1632 12.0332 88.2051 11.8016 88.2 11.5686C88.208 11.2606 88.1319 10.9561 87.9797 10.6881C87.8276 10.4201 87.6053 10.1986 87.3366 10.0476C86.761 9.69032 85.9559 9.51164 84.921 9.5115C84.4809 9.5039 84.0418 9.55508 83.6152 9.66367C83.2862 9.74874 82.9711 9.88048 82.6794 10.0549C82.4471 10.1944 82.2368 10.3677 82.0555 10.5692C81.913 10.7286 81.7889 10.9036 81.6856 11.0908L83.0348 12.1049C83.1229 11.9397 83.241 11.7923 83.3831 11.6704L83.3839 11.6691ZM92.414 14.2758H94.8369V17.0004H97.2171V9.78594H94.8369V12.4509H92.414V9.78594H90.0338V17.0004H92.414V14.2758ZM99.2087 9.78492V17.0004H103.257C103.684 17.008 104.108 16.9418 104.512 16.8049C104.848 16.6905 105.157 16.508 105.419 16.2688C105.659 16.0441 105.847 15.7698 105.97 15.4648C106.098 15.1471 106.162 14.8075 106.159 14.4652C106.161 14.1325 106.107 13.8018 105.999 13.4872C105.894 13.1855 105.72 12.9126 105.491 12.6904C105.23 12.4468 104.918 12.2659 104.577 12.1615C104.13 12.026 103.665 11.9624 103.198 11.9731H101.587V9.78594H99.2073L99.2087 9.78492ZM101.589 13.6384H102.721C103.004 13.6283 103.286 13.688 103.54 13.8121C103.653 13.8802 103.744 13.9793 103.801 14.0975C103.859 14.2156 103.881 14.348 103.866 14.4786C103.881 14.6087 103.86 14.7404 103.805 14.8592C103.75 14.9781 103.663 15.0794 103.554 15.1522C103.306 15.2824 103.029 15.3448 102.749 15.3332H101.587V13.6394L101.589 13.6384ZM106.782 9.78594V17.0004H109.162V9.78594H106.782ZM116.719 12.8281L113.541 17.0004H111.161V9.78594H113.541V13.9299L116.719 9.78594H119.099V17.0004H116.719V12.8281ZM112.947 6.97548C113.06 7.52177 113.357 8.0127 113.789 8.36616C114.249 8.70869 114.812 8.8826 115.385 8.85868C115.937 8.87656 116.48 8.71378 116.931 8.39505C117.383 8.03842 117.698 7.53703 117.823 6.97527L116.227 6.70003C116.191 6.91067 116.083 7.10239 115.922 7.2432C115.773 7.37149 115.582 7.44099 115.385 7.4387C115.19 7.44142 114.999 7.37467 114.848 7.25032C114.684 7.10902 114.576 6.91381 114.543 6.69982L112.947 6.97548ZM44.5249 28.4611V21.6234H42.0584V31.88H44.8441L49.1242 25.1292H49.1677V31.88H51.6341V21.6234H48.8339L44.5684 28.4611H44.5249ZM56.0723 29.1564H58.4952V31.88H60.8754V24.6656H58.4952V27.3306H56.0723V24.6656H53.6921V31.88H56.0723V29.1564ZM69.2055 25.4037C69.0501 25.2509 68.8772 25.1171 68.6904 25.0051C68.4842 24.8805 68.2654 24.7782 68.0375 24.7C67.7959 24.6169 67.5486 24.5515 67.2974 24.5043C67.0415 24.4561 66.7817 24.4318 66.5213 24.4319C65.9818 24.4282 65.4458 24.519 64.9376 24.7C64.4612 24.8678 64.0229 25.1288 63.6484 25.4677C63.2798 25.8062 62.9863 26.2183 62.7871 26.6774C62.3688 27.7036 62.3688 28.8528 62.7871 29.879C62.9862 30.3382 63.2797 30.7503 63.6484 31.0887C64.022 31.4271 64.4606 31.6859 64.9376 31.8491C65.4516 32.0262 65.9921 32.1144 66.5358 32.1099C67.049 32.1129 67.559 32.0297 68.0447 31.8638C68.4767 31.7243 68.8729 31.4919 69.2055 31.1829L67.8852 29.5747C67.7315 29.7545 67.5342 29.8918 67.3121 29.9732C67.0833 30.0633 66.8397 30.11 66.5938 30.1108C66.3514 30.1147 66.1112 30.0653 65.8901 29.9659C65.6854 29.872 65.5026 29.7363 65.3534 29.5676C65.2021 29.3965 65.0862 29.1971 65.0125 28.9809C64.9338 28.7529 64.8944 28.5132 64.8959 28.2721C64.8943 28.0301 64.9361 27.7897 65.0192 27.5623C65.0969 27.348 65.2124 27.1492 65.3601 26.9756C65.5053 26.8067 65.6829 26.6687 65.8826 26.57C66.0948 26.4665 66.3284 26.4143 66.5645 26.4178C66.8102 26.4187 67.0527 26.4732 67.2753 26.5773C67.4904 26.6705 67.6796 26.8147 67.8266 26.9974L69.2055 25.4037ZM70.0786 26.5047H72.0808V31.8792H74.461V26.5055H76.4777V24.6656H70.0786V26.5055V26.5047ZM85.5666 26.8015C85.4163 26.3594 85.185 25.9492 84.8846 25.5918C84.5874 25.2426 84.2189 24.9611 83.8038 24.7661C83.3588 24.5588 82.8728 24.4544 82.382 24.4609C81.8998 24.4488 81.4227 24.5609 80.9964 24.7864C80.6402 24.9739 80.3266 25.2329 80.075 25.5471H80.0315V24.6634H77.7681V35.3547H80.1483V31.0832H80.1771C80.4157 31.4058 80.7364 31.6587 81.1058 31.8155C81.5022 31.9941 81.9324 32.0856 82.3671 32.0837C82.869 32.0924 83.366 31.9832 83.818 31.7649C84.2333 31.5607 84.6015 31.272 84.8989 30.9174C85.1991 30.5556 85.428 30.1403 85.5737 29.6933C85.7289 29.2262 85.8073 28.7369 85.8058 28.2446C85.8078 27.7538 85.7269 27.2662 85.5666 26.8023V26.8015ZM83.3898 28.931C83.3217 29.1496 83.2135 29.3535 83.0706 29.5324C82.9267 29.709 82.7463 29.8523 82.5417 29.9525C82.3109 30.0627 82.0575 30.1173 81.8018 30.1118C81.5508 30.1163 81.3023 30.0618 81.0763 29.9525C80.8687 29.8502 80.6836 29.7074 80.5321 29.5324C80.3812 29.357 80.2633 29.1558 80.1841 28.9384C80.0197 28.4993 80.0197 28.0156 80.1841 27.5766C80.2633 27.3592 80.3812 27.1581 80.5321 26.9827C80.6836 26.8077 80.8687 26.6648 81.0763 26.5624C81.3024 26.4533 81.5508 26.3988 81.8018 26.4031C82.0574 26.3978 82.3108 26.4524 82.5417 26.5624C82.7448 26.6617 82.925 26.8024 83.0706 26.9754C83.2133 27.1489 83.3216 27.348 83.3898 27.5621C83.462 27.7819 83.4987 28.0117 83.4986 28.243C83.4986 28.4769 83.462 28.7093 83.3902 28.9318L83.3898 28.931ZM94.4933 24.6648H91.9693L90.5328 29.3005H90.4893L88.8789 24.6648H86.2383L89.2561 31.7633L89.0239 32.3573C88.934 32.6225 88.7909 32.8665 88.6032 33.0744C88.4939 33.1678 88.3669 33.2383 88.2298 33.2819C88.0928 33.3254 87.9484 33.3411 87.8052 33.3279C87.6762 33.3266 87.5476 33.3145 87.4207 33.2917C87.2903 33.2698 87.1618 33.2383 87.0362 33.1975L86.7752 35.1966C86.9776 35.2503 87.1837 35.289 87.3918 35.3126C87.6204 35.341 87.8505 35.3556 88.0808 35.3561C88.4808 35.3637 88.8796 35.3099 89.2634 35.1966C89.5817 35.0986 89.8775 34.9386 90.1339 34.7259C90.3862 34.5114 90.6018 34.2571 90.7723 33.9732C90.9637 33.6526 91.1263 33.3157 91.2583 32.9664L94.4933 24.6648ZM95.6392 24.6648V31.8792H98.0194V27.983L99.9055 30.5038H100.312L102.184 27.9541V31.8804H104.564V24.6656H102.475L100.125 27.5774L97.7306 24.6656H95.6413L95.6392 24.6648ZM108.465 27.4462C108.475 27.2615 108.524 27.0811 108.61 26.9172C108.697 26.749 108.815 26.5989 108.958 26.4754C109.109 26.3468 109.281 26.2462 109.467 26.1783C109.671 26.104 109.888 26.0672 110.105 26.0697C110.302 26.0549 110.499 26.0836 110.683 26.1537C110.868 26.2238 111.034 26.3336 111.171 26.4754C111.407 26.7429 111.534 27.0893 111.527 27.446H108.465L108.465 27.4462ZM113.449 26.7075C113.286 26.2507 113.032 25.8317 112.702 25.4761C112.381 25.137 111.99 24.8724 111.556 24.701C111.089 24.5183 110.592 24.4273 110.091 24.4329C109.566 24.4283 109.044 24.5216 108.553 24.7081C108.095 24.882 107.675 25.1455 107.32 25.4832C106.964 25.828 106.682 26.2422 106.493 26.7002C106.284 27.2076 106.18 27.7522 106.188 28.301C106.177 28.8576 106.284 29.4102 106.5 29.9234C106.695 30.3791 106.987 30.787 107.356 31.1186C107.726 31.4466 108.157 31.6977 108.625 31.8574C109.12 32.0282 109.64 32.1139 110.163 32.1109C110.83 32.1251 111.492 31.989 112.1 31.7126C112.641 31.4601 113.105 31.0674 113.443 30.5754L111.788 29.5334C111.618 29.7598 111.4 29.9454 111.149 30.0766C110.852 30.2249 110.523 30.2971 110.192 30.2867C109.776 30.2867 109.371 30.152 109.038 29.9028C108.882 29.7862 108.749 29.6413 108.646 29.4756C108.544 29.3088 108.482 29.1203 108.465 28.9251H113.703C113.713 28.8337 113.717 28.7418 113.717 28.6499V28.3602C113.727 27.798 113.636 27.2386 113.449 26.7083L113.449 26.7075ZM117.715 29.1556H120.138V31.8792H122.518V24.6656H120.138V27.3306H117.715V24.6656H115.335V31.88H117.715V29.1564V29.1556ZM123.8 26.5047H125.802V31.8792H128.182V26.5055H130.199V24.6656H123.799V26.5055L123.8 26.5047ZM13.7618 6.33323L16.3332 15.2919L25.6626 15.1613C25.796 15.1755 25.9225 15.2283 26.0265 15.3131C26.1305 15.3979 26.2076 15.5112 26.2484 15.6391C26.2891 15.7669 26.2918 15.9039 26.2561 16.0333C26.2203 16.1627 26.1477 16.2789 26.0471 16.3677L18.4331 21.8104L21.5009 30.6509C21.5334 30.7808 21.5267 30.9174 21.4815 31.0435C21.4364 31.1695 21.3549 31.2794 21.2473 31.3591C21.1397 31.4388 21.0109 31.4849 20.8772 31.4914C20.7434 31.498 20.6108 31.4647 20.4959 31.3959L13.1419 25.4708L5.78633 31.3959C5.67147 31.4645 5.53885 31.4976 5.40519 31.491C5.27154 31.4843 5.14285 31.4383 5.03535 31.3586C4.92785 31.2789 4.84636 31.1692 4.80116 31.0432C4.75595 30.9173 4.74906 30.7807 4.78136 30.6509L7.23337 21.1112L0.23397 16.3663C0.133338 16.2774 0.0607229 16.1613 0.0249781 16.0319C-0.0107666 15.9025 -0.00809664 15.7655 0.0326626 15.6376C0.0734218 15.5098 0.150509 15.3965 0.254526 15.3117C0.358542 15.2268 0.484994 15.1741 0.618463 15.1599L8.86654 15.2919L12.5192 6.33323C12.5686 6.2088 12.6543 6.10207 12.7651 6.02687C12.8758 5.95167 13.0066 5.91147 13.1405 5.91147C13.2744 5.91147 13.4052 5.95167 13.516 6.02687C13.6268 6.10207 13.7124 6.2088 13.7618 6.33323ZM13.7392 0.624023C14.6848 0.66288 18.1104 1.00831 19.9064 1.84464C19.0991 4.04479 18.1338 4.84083 19.7416 5.46578C20.6741 5.82709 20.9134 4.83371 21.969 2.75277C23.592 3.49755 25.8465 5.21861 26.6854 6.118C25.2775 7.79166 24.3663 8.38 25.0203 9.12253C26.0131 10.2469 26.2344 9.52839 28.1679 7.86795C28.9887 8.71668 30.6103 11.1742 31.1323 12.9831C26.634 12.9831 22.8208 12.7593 17.9662 12.7301C16.4952 8.36596 15.5004 5.09919 13.7392 0.624023ZM31.7839 14.4973C32.0281 15.4105 32.7889 19.0024 32.5242 20.9643C30.1813 20.8502 29.133 20.167 29.0144 21.8863C28.947 22.8831 29.9677 22.8154 32.2708 23.2019C32.0427 24.9718 31.0705 27.6339 30.4602 28.702C28.4413 27.8581 27.6074 27.1644 27.0929 28.0103C26.3144 29.2919 27.0671 29.2891 29.229 30.6377C28.6624 31.6733 26.7973 33.952 25.2244 34.9889C23.8561 30.5931 22.5498 27.2224 21.2324 22.7421C24.4401 20.0214 27.9781 17.4803 31.7829 14.4977L31.7839 14.4973ZM23.7708 36.1129C22.9675 36.6125 19.7487 38.3845 17.7925 38.7026C17.22 36.4299 17.5691 35.2296 15.8883 35.6161C14.9139 35.8419 15.276 36.7975 15.576 39.1111C13.8151 39.4082 10.9819 39.2535 9.78139 38.982C10.0019 36.8068 10.4238 35.8084 9.46444 35.5622C8.01029 35.1911 8.23223 35.9097 7.57005 38.3696C6.41332 38.1298 4.25121 37.2129 2.80031 36.0114C6.73983 33.2748 9.51672 31.3586 13.3002 28.5618C17.0265 31.3263 19.7695 33.4048 23.5379 36.1129H23.7712H23.7708Z" fill="#282D3A"/>
</svg>
