<svg width="34" height="40" viewBox="0 0 34 40" fill="none" xmlns="http://www.w3.org/2000/svg">
<rect width="33.6424" height="40" fill="black" fill-opacity="0"/>
<path fill-rule="evenodd" clip-rule="evenodd" d="M14.2111 5.90883L16.8666 15.1807L26.5001 15.0453C26.6379 15.0605 26.7684 15.1154 26.8757 15.2033C26.9829 15.2912 27.0624 15.4084 27.1044 15.5405C27.1465 15.6727 27.1492 15.8142 27.1125 15.9479C27.0757 16.0816 27.0009 16.2018 26.8972 16.2939L19.035 21.9271L22.2029 31.0765C22.2372 31.2109 22.2307 31.3524 22.1843 31.483C22.138 31.6136 22.0538 31.7275 21.9425 31.8102C21.8312 31.8928 21.6979 31.9405 21.5594 31.9472C21.4209 31.9538 21.2836 31.9192 21.1649 31.8476L13.5705 25.7154L5.97602 31.8476C5.85733 31.9191 5.72005 31.9537 5.58163 31.947C5.44321 31.9403 5.30991 31.8926 5.19867 31.81C5.08743 31.7273 5.00328 31.6135 4.95692 31.4829C4.91055 31.3523 4.90407 31.2108 4.93829 31.0765L7.46986 21.2042L0.241632 16.2927C0.137703 16.2007 0.062724 16.0805 0.0258086 15.9468C-0.0111068 15.813 -0.00836887 15.6714 0.0336891 15.5391C0.0757471 15.4069 0.155314 15.2897 0.26272 15.2018C0.370126 15.1139 0.500745 15.0591 0.638703 15.0441L9.15644 15.1807L12.9281 5.90883C12.979 5.78018 13.0674 5.66979 13.1818 5.59201C13.2962 5.51422 13.4313 5.47262 13.5696 5.47262C13.708 5.47262 13.8431 5.51422 13.9575 5.59201C14.0719 5.66979 14.1603 5.78018 14.2111 5.90883ZM14.188 0C15.1645 0.0402371 18.7018 0.397793 20.5563 1.26398C19.7227 3.54087 18.7252 4.36488 20.3862 5.01205C21.35 5.38599 21.5965 4.3579 22.6865 2.20413C24.3622 2.97514 26.6902 4.75617 27.5569 5.68693C26.1028 7.41905 25.1614 8.02815 25.8373 8.79651C26.8625 9.96025 27.0902 9.21647 29.0873 7.49808C29.9349 8.37655 31.6097 10.9194 32.1487 12.792C27.5034 12.792 23.5659 12.5607 18.5531 12.5301C17.0338 8.01273 16.0066 4.63185 14.188 0ZM32.8209 14.3581C33.0737 15.3034 33.8587 19.0206 33.5854 21.0512C31.1661 20.9332 30.0836 20.226 29.9612 22.0056C29.8916 23.0373 30.9454 22.9672 33.3238 23.3672C33.0881 25.1983 32.0837 27.9542 31.4543 29.0596C29.3697 28.1862 28.5086 27.4694 27.9773 28.3428C27.1733 29.6695 27.9506 29.6663 30.1838 31.0621C29.5988 32.134 27.673 34.4924 26.0486 35.5653C24.6357 31.0161 23.2867 27.5275 21.9263 22.8908C25.2388 20.0747 28.8921 17.4456 32.8209 14.3584V14.3581ZM24.5468 36.7293C23.7172 37.2466 20.3934 39.0804 18.3734 39.4097C17.7821 37.0579 18.1428 35.8151 16.4066 36.2161C15.4004 36.4495 15.7744 37.4386 16.0842 39.8331C14.2658 40.1405 11.3401 39.9803 10.1007 39.6993C10.3286 37.4482 10.764 36.4144 9.77349 36.1602C8.27195 35.7761 8.50108 36.5196 7.81729 39.0652C6.02375 38.6027 4.3463 37.7715 2.89198 36.6245C6.95979 33.7922 9.82746 31.809 13.7343 28.9143C17.5821 31.7755 20.4149 33.9259 24.3058 36.7293H24.5468Z" fill="#343D4F"/>
</svg>
