<svg width="27" height="29" viewBox="0 0 27 29" fill="none" xmlns="http://www.w3.org/2000/svg">
<rect width="26.0394" height="27.7791" fill="black" fill-opacity="0" transform="translate(0 0.629883)"/>
<rect width="26.0394" height="27.7791" fill="black" fill-opacity="0" transform="translate(0 0.629883)"/>
<rect width="26.0394" height="27.7791" fill="black" fill-opacity="0" transform="translate(0 0.629883)"/>
<path d="M25.8094 6.75927L13.1966 0.670331C13.0848 0.6164 12.9546 0.6164 12.8428 0.670331L0.229991 6.75927C0.0893597 6.82715 0 6.96957 0 7.12572V21.9131C0 22.0693 0.0893597 22.2117 0.229991 22.2796L12.8428 28.3685C12.8987 28.3955 12.9592 28.409 13.0197 28.409C13.0802 28.409 13.1407 28.3955 13.1966 28.3685L25.8094 22.2796C25.9501 22.2117 26.0394 22.0693 26.0394 21.9131V7.12577C26.0394 6.96951 25.95 6.8272 25.8094 6.75927ZM13.0197 1.48867L24.6965 7.12572L21.3117 8.7598C21.2902 8.74347 21.2676 8.72839 21.2428 8.71639L9.64526 3.11771L13.0197 1.48867ZM8.72627 3.5778L20.3861 9.20665L17.998 10.3595L6.34302 4.73297L8.72627 3.5778ZM20.6589 9.97861V14.2402L18.4283 15.3171V11.0555L20.6589 9.97861ZM25.2256 21.6578L13.4266 27.3537V13.47L16.2411 12.1114C16.4434 12.0136 16.5283 11.7704 16.4306 11.568C16.3329 11.3657 16.0896 11.2807 15.8872 11.3785L13.0197 12.7628L11.8914 12.2181C11.689 12.1203 11.4457 12.2052 11.348 12.4076C11.2503 12.61 11.3352 12.8533 11.5375 12.951L12.6128 13.47V27.3537L0.813841 21.6577V7.77402L9.79864 12.1115C9.85567 12.1391 9.91594 12.1521 9.97525 12.1521C10.1265 12.1521 10.2718 12.0674 10.342 11.922C10.4397 11.7196 10.3548 11.4763 10.1524 11.3786L1.34289 7.12572L5.38524 5.17423L17.6088 11.0753C17.6106 11.0778 17.6126 11.08 17.6144 11.0824V15.9654C17.6144 16.1055 17.6864 16.2356 17.805 16.3101C17.8709 16.3515 17.9461 16.3724 18.0214 16.3724C18.0818 16.3724 18.1422 16.359 18.1983 16.3319L21.2428 14.8621C21.3834 14.7943 21.4728 14.6519 21.4728 14.4957V9.58579L25.2256 7.77408V21.6578Z" fill="#282D3A"/>
<rect width="2.66495" height="1.70763" fill="black" fill-opacity="0" transform="translate(1.73633 19.1455)"/>
<rect width="2.66495" height="1.70763" fill="black" fill-opacity="0" transform="translate(1.73633 19.1455)"/>
<path d="M4.17122 20.0797L2.32027 19.1861C2.11779 19.0883 1.87461 19.1733 1.7769 19.3756C1.67918 19.578 1.76404 19.8213 1.96641 19.919L3.81736 20.8126C3.87438 20.8401 3.93466 20.8531 3.99396 20.8531C4.14523 20.8531 4.29053 20.7684 4.36068 20.623C4.45845 20.4206 4.37359 20.1774 4.17122 20.0797Z" fill="#282D3A"/>
<rect width="4.36587" height="2.52881" fill="black" fill-opacity="0" transform="translate(1.74023 17.2158)"/>
<rect width="4.36587" height="2.52881" fill="black" fill-opacity="0" transform="translate(1.74023 17.2158)"/>
<path d="M5.87602 18.9711L2.32414 17.2564C2.12171 17.1587 1.87848 17.2435 1.78077 17.446C1.68311 17.6483 1.76797 17.8916 1.97034 17.9893L5.52221 19.704C5.57924 19.7315 5.63951 19.7446 5.69882 19.7446C5.85008 19.7446 5.99538 19.6599 6.06553 19.5145C6.16325 19.312 6.07839 19.0688 5.87602 18.9711Z" fill="#282D3A"/>
</svg>
