<svg width="18" height="19" viewBox="0 0 18 19" fill="none" xmlns="http://www.w3.org/2000/svg">
<rect width="17.2971" height="17.964" fill="black" fill-opacity="0" transform="translate(0.123047 0.966797)"/>
<path d="M17.3257 18.3566L12.2861 13.1156C13.5715 11.8264 14.3678 10.0492 14.3678 8.08919C14.3678 4.1617 11.1729 0.966797 7.24544 0.966797C3.31795 0.966797 0.123047 4.1617 0.123047 8.08919C0.123047 12.0167 3.31795 15.2116 7.24544 15.2116C8.96939 15.2116 10.5516 14.5953 11.7848 13.5727L16.8366 18.8267C16.9031 18.8962 16.9919 18.9308 17.0811 18.9308C17.1659 18.9308 17.2504 18.8993 17.3162 18.8362C17.4511 18.7063 17.4552 18.4916 17.3257 18.3566ZM7.24544 14.5333C3.69204 14.5333 0.80137 11.6426 0.80137 8.08919C0.80137 4.53579 3.69204 1.64512 7.24544 1.64512C10.7988 1.64512 13.6895 4.53579 13.6895 8.08919C13.6895 11.6426 10.7985 14.5333 7.24544 14.5333Z" fill="#282D3A"/>
</svg>
