<svg width="20" height="17" viewBox="0 0 20 17" fill="none" xmlns="http://www.w3.org/2000/svg">
<rect width="19.8597" height="15.8648" fill="black" fill-opacity="0" transform="translate(0 16.6621) scale(1 -1)"/>
<rect width="19.8597" height="15.8648" fill="black" fill-opacity="0" transform="translate(0 16.6621) scale(1 -1)"/>
<path d="M19.5554 8.42564L0.30427 8.42564C0.136313 8.42564 0 8.56195 0 8.72991C0 8.89787 0.136313 9.03418 0.30427 9.03418L19.5554 9.03418C19.7234 9.03418 19.8597 8.89787 19.8597 8.72991C19.8597 8.56195 19.7234 8.42564 19.5554 8.42564Z" fill="#282D3A"/>
<path d="M7.93354 0.797311C7.85565 0.797311 7.77775 0.827129 7.71812 0.886158L0.0888469 8.51604C0.0322526 8.57324 0 8.65052 0 8.73146C0 8.8124 0.0322526 8.88968 0.0888469 8.94688L7.71873 16.5731C7.83739 16.6918 8.0303 16.6918 8.14896 16.5731C8.26763 16.4544 8.26763 16.2615 8.14896 16.1429L0.734508 8.73146L8.14896 1.317C8.26763 1.19834 8.26763 1.00543 8.14896 0.886767C8.08933 0.82713 8.01143 0.797311 7.93354 0.797311Z" fill="#282D3A"/>
</svg>
