<svg width="20" height="17" viewBox="0 0 20 17" fill="none" xmlns="http://www.w3.org/2000/svg">
<rect width="19.8597" height="15.8648" fill="black" fill-opacity="0" transform="translate(20 0.337891) scale(-1 1)"/>
<rect width="19.8597" height="15.8648" fill="black" fill-opacity="0" transform="translate(20 0.337891) scale(-1 1)"/>
<path d="M0.444559 8.57436H19.6957C19.8637 8.57436 20 8.43805 20 8.27009C20 8.10213 19.8637 7.96582 19.6957 7.96582H0.444559C0.276602 7.96582 0.140289 8.10213 0.140289 8.27009C0.140289 8.43805 0.276602 8.57436 0.444559 8.57436Z" fill="#282D3A"/>
<path d="M12.0665 16.2027C12.1444 16.2027 12.2222 16.1729 12.2819 16.1138L19.9112 8.48396C19.9677 8.42676 20 8.34948 20 8.26854C20 8.1876 19.9677 8.11032 19.9112 8.05312L12.2813 0.42689C12.1626 0.308224 11.9697 0.308224 11.851 0.42689C11.7324 0.545555 11.7324 0.738462 11.851 0.857128L19.2655 8.26854L11.851 15.683C11.7324 15.8017 11.7324 15.9946 11.851 16.1132C11.9107 16.1729 11.9886 16.2027 12.0665 16.2027Z" fill="#282D3A"/>
</svg>
