<svg width="27" height="27" viewBox="0 0 27 27" fill="none" xmlns="http://www.w3.org/2000/svg">
<rect width="25.9945" height="25.9945" fill="black" fill-opacity="0" transform="translate(0.0634766 0.420898)"/>
<rect width="25.9945" height="25.9945" fill="black" fill-opacity="0" transform="translate(0.0634766 0.420898)"/>
<path d="M13.0607 26.4154C5.88256 26.4154 0.0634766 20.5963 0.0634766 13.4182C0.0634766 6.23999 5.88256 0.420898 13.0607 0.420898C20.2389 0.420898 26.058 6.23999 26.058 13.4182C26.0499 20.593 20.2355 26.4073 13.0607 26.4154ZM13.0607 1.28738C6.36108 1.28738 0.92996 6.7185 0.92996 13.4182C0.92996 20.1178 6.36108 25.5489 13.0607 25.5489C19.7604 25.5489 25.1915 20.1178 25.1915 13.4182C25.1839 6.7217 19.7572 1.29502 13.0607 1.28738Z" fill="#282D3A"/>
<path d="M18.7956 13.8007H9.62058C9.40945 13.8007 9.23828 13.6295 9.23828 13.4184C9.23828 13.2073 9.40945 13.0361 9.62058 13.0361H18.7956C19.0068 13.0361 19.1779 13.2073 19.1779 13.4184C19.1779 13.6295 19.0068 13.8007 18.7956 13.8007Z" fill="#282D3A"/>
<path d="M18.7956 17.623H9.62058C9.40945 17.623 9.23828 17.4518 9.23828 17.2407C9.23828 17.0296 9.40945 16.8584 9.62058 16.8584H18.7956C19.0068 16.8584 19.1779 17.0296 19.1779 17.2407C19.1779 17.4518 19.0068 17.623 18.7956 17.623Z" fill="#282D3A"/>
<path d="M18.7956 9.97748H9.62058C9.40945 9.97748 9.23828 9.80631 9.23828 9.59519C9.23828 9.38406 9.40945 9.21289 9.62058 9.21289H18.7956C19.0068 9.21289 19.1779 9.38406 19.1779 9.59519C19.1779 9.80631 19.0068 9.97748 18.7956 9.97748Z" fill="#282D3A"/>
<path d="M8.09122 9.97748H7.32663C7.11551 9.97748 6.94434 9.80631 6.94434 9.59519C6.94434 9.38406 7.11551 9.21289 7.32663 9.21289H8.09122C8.30234 9.21289 8.47351 9.38406 8.47351 9.59519C8.47351 9.80631 8.30234 9.97748 8.09122 9.97748Z" fill="#282D3A"/>
<path d="M8.09122 13.8007H7.32663C7.11551 13.8007 6.94434 13.6295 6.94434 13.4184C6.94434 13.2073 7.11551 13.0361 7.32663 13.0361H8.09122C8.30234 13.0361 8.47351 13.2073 8.47351 13.4184C8.47351 13.6295 8.30234 13.8007 8.09122 13.8007Z" fill="#282D3A"/>
<path d="M8.09122 17.623H7.32663C7.11551 17.623 6.94434 17.4518 6.94434 17.2407C6.94434 17.0296 7.11551 16.8584 7.32663 16.8584H8.09122C8.30234 16.8584 8.47351 17.0296 8.47351 17.2407C8.47351 17.4518 8.30234 17.623 8.09122 17.623Z" fill="#282D3A"/>
</svg>
