<svg width="24" height="24" viewBox="0 0 24 24" fill="none" xmlns="http://www.w3.org/2000/svg">
<rect width="24" height="24" fill="black" fill-opacity="0"/>
<rect width="24" height="24" fill="black" fill-opacity="0"/>
<path d="M13.1761 9.06247H10.3525V6.34375C10.3525 6.09362 10.1417 5.89062 9.88192 5.89062C9.62215 5.89062 9.41133 6.09362 9.41133 6.34375V9.06247H6.58778C6.32801 9.06247 6.11719 9.26547 6.11719 9.51559C6.11719 9.76571 6.32801 9.96871 6.58778 9.96871H9.41133V12.6874C9.41133 12.9376 9.62215 13.1406 9.88192 13.1406C10.1417 13.1406 10.3525 12.9376 10.3525 12.6874V9.96871H13.1761C13.4358 9.96871 13.6466 9.76571 13.6466 9.51559C13.6466 9.26547 13.4358 9.06247 13.1761 9.06247Z" fill="#282D3A"/>
<path d="M23.8688 23.2329L16.8763 16.2308C18.6599 14.5085 19.7648 12.1341 19.7648 9.51554C19.7648 4.2684 15.3319 0 9.88241 0C4.43297 0 0 4.2684 0 9.51554C0 14.7627 4.43297 19.0311 9.88241 19.0311C12.2744 19.0311 14.4697 18.2078 16.1808 16.8416L23.1903 23.8609C23.2825 23.9538 23.4058 24 23.5296 24C23.6472 24 23.7644 23.9579 23.8557 23.8736C24.043 23.7 24.0486 23.4132 23.8688 23.2329ZM0.941182 9.51554C0.941182 4.76819 4.95203 0.906242 9.88241 0.906242C14.8128 0.906242 18.8236 4.76819 18.8236 9.51554C18.8236 14.2629 14.8128 18.1248 9.88241 18.1248C4.95203 18.1248 0.941182 14.2629 0.941182 9.51554Z" fill="#282D3A"/>
</svg>
